<mxfile host="app.diagrams.net" agent="Mozilla/5.0 (Windows NT 10.0; Win64; x64) AppleWebKit/537.36 (KHTML, like Gecko) Chrome/137.0.0.0 Safari/537.36" version="27.2.0" pages="6">
  <diagram name="ページ1" id="PAh37ENui2QbNzKLoeKM">
    <mxGraphModel dx="1410" dy="770" grid="1" gridSize="10" guides="1" tooltips="1" connect="1" arrows="1" fold="1" page="1" pageScale="1" pageWidth="827" pageHeight="1169" math="0" shadow="0">
      <root>
        <mxCell id="0" />
        <mxCell id="1" parent="0" />
        <mxCell id="fWfnY4XCKVbtA2HmcBdE-1" value="&lt;font style=&quot;font-size: 16px;&quot;&gt;MC&lt;/font&gt;" style="whiteSpace=wrap;html=1;aspect=fixed;strokeColor=light-dark(#999999,#EDEDED);fontColor=#999999;" parent="1" vertex="1">
          <mxGeometry x="360" y="320" width="80" height="80" as="geometry" />
        </mxCell>
        <mxCell id="fWfnY4XCKVbtA2HmcBdE-2" value="&lt;font style=&quot;font-size: 16px;&quot;&gt;Kapplets&lt;/font&gt;" style="whiteSpace=wrap;html=1;aspect=fixed;strokeColor=light-dark(#999999,#EDEDED);fontColor=#999999;" parent="1" vertex="1">
          <mxGeometry x="160" y="320" width="80" height="80" as="geometry" />
        </mxCell>
        <mxCell id="fWfnY4XCKVbtA2HmcBdE-4" value="&lt;font style=&quot;font-size: 16px;&quot;&gt;RS&lt;/font&gt;" style="whiteSpace=wrap;html=1;aspect=fixed;strokeColor=light-dark(#999999,#EDEDED);fontColor=#999999;" parent="1" vertex="1">
          <mxGeometry x="560" y="150" width="80" height="80" as="geometry" />
        </mxCell>
        <mxCell id="fWfnY4XCKVbtA2HmcBdE-5" value="&lt;font style=&quot;font-size: 16px;&quot;&gt;DAS&lt;/font&gt;" style="whiteSpace=wrap;html=1;aspect=fixed;strokeColor=light-dark(#999999,#EDEDED);fontColor=#999999;" parent="1" vertex="1">
          <mxGeometry x="560" y="320" width="80" height="80" as="geometry" />
        </mxCell>
        <mxCell id="fWfnY4XCKVbtA2HmcBdE-6" value="&lt;font style=&quot;font-size: 16px;&quot;&gt;DS&lt;/font&gt;" style="whiteSpace=wrap;html=1;aspect=fixed;strokeColor=light-dark(#999999,#EDEDED);fontColor=#999999;" parent="1" vertex="1">
          <mxGeometry x="460" y="440" width="80" height="80" as="geometry" />
        </mxCell>
        <mxCell id="fWfnY4XCKVbtA2HmcBdE-7" value="&lt;font style=&quot;font-size: 16px;&quot;&gt;DB&lt;/font&gt;" style="shape=cylinder3;whiteSpace=wrap;html=1;boundedLbl=1;backgroundOutline=1;size=15;strokeColor=light-dark(#999999,#EDEDED);fontColor=#999999;" parent="1" vertex="1">
          <mxGeometry x="360" y="150" width="80" height="80" as="geometry" />
        </mxCell>
        <mxCell id="fWfnY4XCKVbtA2HmcBdE-8" value="" style="endArrow=classic;html=1;rounded=0;entryX=1;entryY=0.25;entryDx=0;entryDy=0;exitX=0;exitY=0.25;exitDx=0;exitDy=0;strokeColor=#999999;" parent="1" source="fWfnY4XCKVbtA2HmcBdE-1" target="fWfnY4XCKVbtA2HmcBdE-2" edge="1">
          <mxGeometry width="50" height="50" relative="1" as="geometry">
            <mxPoint x="380" y="490" as="sourcePoint" />
            <mxPoint x="430" y="440" as="targetPoint" />
          </mxGeometry>
        </mxCell>
        <mxCell id="fWfnY4XCKVbtA2HmcBdE-9" value="&lt;font&gt;8080&lt;/font&gt;" style="edgeLabel;html=1;align=center;verticalAlign=middle;resizable=0;points=[];fontSize=14;fontColor=#CCCCCC;" parent="fWfnY4XCKVbtA2HmcBdE-8" vertex="1" connectable="0">
          <mxGeometry x="-0.0067" y="1" relative="1" as="geometry">
            <mxPoint as="offset" />
          </mxGeometry>
        </mxCell>
        <mxCell id="fWfnY4XCKVbtA2HmcBdE-10" value="" style="endArrow=classic;html=1;rounded=0;exitX=0.5;exitY=0;exitDx=0;exitDy=0;strokeColor=#999999;" parent="1" source="fWfnY4XCKVbtA2HmcBdE-1" target="fWfnY4XCKVbtA2HmcBdE-7" edge="1">
          <mxGeometry width="50" height="50" relative="1" as="geometry">
            <mxPoint x="390" y="390" as="sourcePoint" />
            <mxPoint x="440" y="340" as="targetPoint" />
          </mxGeometry>
        </mxCell>
        <mxCell id="fWfnY4XCKVbtA2HmcBdE-11" value="&lt;font style=&quot;font-size: 14px;&quot;&gt;3306&lt;/font&gt;" style="edgeLabel;html=1;align=center;verticalAlign=middle;resizable=0;points=[];fontColor=#CCCCCC;" parent="fWfnY4XCKVbtA2HmcBdE-10" vertex="1" connectable="0">
          <mxGeometry x="-0.0867" y="-1" relative="1" as="geometry">
            <mxPoint as="offset" />
          </mxGeometry>
        </mxCell>
        <mxCell id="fWfnY4XCKVbtA2HmcBdE-12" value="" style="endArrow=classic;html=1;rounded=0;entryX=1.017;entryY=0.251;entryDx=0;entryDy=0;entryPerimeter=0;exitX=0;exitY=0.25;exitDx=0;exitDy=0;strokeColor=#999999;" parent="1" source="fWfnY4XCKVbtA2HmcBdE-4" target="fWfnY4XCKVbtA2HmcBdE-7" edge="1">
          <mxGeometry width="50" height="50" relative="1" as="geometry">
            <mxPoint x="390" y="310" as="sourcePoint" />
            <mxPoint x="440" y="260" as="targetPoint" />
            <Array as="points">
              <mxPoint x="500" y="170" />
            </Array>
          </mxGeometry>
        </mxCell>
        <mxCell id="fWfnY4XCKVbtA2HmcBdE-13" value="&lt;font style=&quot;font-size: 14px;&quot;&gt;3306&lt;/font&gt;" style="edgeLabel;html=1;align=center;verticalAlign=middle;resizable=0;points=[];fontColor=#CCCCCC;" parent="fWfnY4XCKVbtA2HmcBdE-12" vertex="1" connectable="0">
          <mxGeometry x="-0.0371" y="-1" relative="1" as="geometry">
            <mxPoint as="offset" />
          </mxGeometry>
        </mxCell>
        <mxCell id="fWfnY4XCKVbtA2HmcBdE-14" value="" style="endArrow=classic;html=1;rounded=0;exitX=0.5;exitY=0;exitDx=0;exitDy=0;entryX=0;entryY=0.5;entryDx=0;entryDy=0;entryPerimeter=0;strokeColor=#999999;" parent="1" target="fWfnY4XCKVbtA2HmcBdE-7" edge="1">
          <mxGeometry width="50" height="50" relative="1" as="geometry">
            <mxPoint x="199.5" y="320" as="sourcePoint" />
            <mxPoint x="199.5" y="200" as="targetPoint" />
            <Array as="points">
              <mxPoint x="200" y="190" />
            </Array>
          </mxGeometry>
        </mxCell>
        <mxCell id="fWfnY4XCKVbtA2HmcBdE-15" value="&lt;font style=&quot;font-size: 14px;&quot;&gt;3306&lt;/font&gt;" style="edgeLabel;html=1;align=center;verticalAlign=middle;resizable=0;points=[];fontColor=#CCCCCC;" parent="fWfnY4XCKVbtA2HmcBdE-14" vertex="1" connectable="0">
          <mxGeometry x="-0.0867" y="-1" relative="1" as="geometry">
            <mxPoint x="-1" y="16" as="offset" />
          </mxGeometry>
        </mxCell>
        <mxCell id="fWfnY4XCKVbtA2HmcBdE-16" value="" style="endArrow=classic;html=1;rounded=0;entryX=0;entryY=0.75;entryDx=0;entryDy=0;exitX=1;exitY=0.75;exitDx=0;exitDy=0;strokeColor=#999999;" parent="1" source="fWfnY4XCKVbtA2HmcBdE-2" target="fWfnY4XCKVbtA2HmcBdE-1" edge="1">
          <mxGeometry width="50" height="50" relative="1" as="geometry">
            <mxPoint x="410" y="480" as="sourcePoint" />
            <mxPoint x="290" y="480" as="targetPoint" />
          </mxGeometry>
        </mxCell>
        <mxCell id="fWfnY4XCKVbtA2HmcBdE-17" value="&lt;font&gt;8080&lt;/font&gt;" style="edgeLabel;html=1;align=center;verticalAlign=middle;resizable=0;points=[];fontSize=14;fontColor=#CCCCCC;" parent="fWfnY4XCKVbtA2HmcBdE-16" vertex="1" connectable="0">
          <mxGeometry x="-0.0067" y="1" relative="1" as="geometry">
            <mxPoint as="offset" />
          </mxGeometry>
        </mxCell>
        <mxCell id="fWfnY4XCKVbtA2HmcBdE-18" value="" style="endArrow=classic;html=1;rounded=0;exitX=0;exitY=0.5;exitDx=0;exitDy=0;strokeColor=#999999;" parent="1" source="fWfnY4XCKVbtA2HmcBdE-6" edge="1">
          <mxGeometry width="50" height="50" relative="1" as="geometry">
            <mxPoint x="330" y="540" as="sourcePoint" />
            <mxPoint x="400" y="400" as="targetPoint" />
            <Array as="points">
              <mxPoint x="400" y="480" />
            </Array>
          </mxGeometry>
        </mxCell>
        <mxCell id="fWfnY4XCKVbtA2HmcBdE-19" value="&lt;font&gt;8080&lt;/font&gt;" style="edgeLabel;html=1;align=center;verticalAlign=middle;resizable=0;points=[];fontSize=14;fontColor=#CCCCCC;" parent="fWfnY4XCKVbtA2HmcBdE-18" vertex="1" connectable="0">
          <mxGeometry x="-0.0067" y="1" relative="1" as="geometry">
            <mxPoint x="1" y="-20" as="offset" />
          </mxGeometry>
        </mxCell>
        <mxCell id="fWfnY4XCKVbtA2HmcBdE-20" value="" style="endArrow=classic;html=1;rounded=0;exitX=1;exitY=0.25;exitDx=0;exitDy=0;entryX=0.25;entryY=1;entryDx=0;entryDy=0;strokeColor=#999999;" parent="1" source="fWfnY4XCKVbtA2HmcBdE-6" target="fWfnY4XCKVbtA2HmcBdE-5" edge="1">
          <mxGeometry width="50" height="50" relative="1" as="geometry">
            <mxPoint x="660" y="600" as="sourcePoint" />
            <mxPoint x="600" y="520" as="targetPoint" />
            <Array as="points">
              <mxPoint x="580" y="460" />
            </Array>
          </mxGeometry>
        </mxCell>
        <mxCell id="fWfnY4XCKVbtA2HmcBdE-21" value="&lt;font&gt;49998&lt;/font&gt;" style="edgeLabel;html=1;align=center;verticalAlign=middle;resizable=0;points=[];fontSize=14;fontColor=#CCCCCC;" parent="fWfnY4XCKVbtA2HmcBdE-20" vertex="1" connectable="0">
          <mxGeometry x="-0.0067" y="1" relative="1" as="geometry">
            <mxPoint x="1" y="-20" as="offset" />
          </mxGeometry>
        </mxCell>
        <mxCell id="fWfnY4XCKVbtA2HmcBdE-22" value="" style="endArrow=classic;html=1;rounded=0;exitX=1;exitY=0.75;exitDx=0;exitDy=0;entryX=0.75;entryY=1;entryDx=0;entryDy=0;strokeColor=#999999;" parent="1" source="fWfnY4XCKVbtA2HmcBdE-6" target="fWfnY4XCKVbtA2HmcBdE-5" edge="1">
          <mxGeometry width="50" height="50" relative="1" as="geometry">
            <mxPoint x="670" y="630" as="sourcePoint" />
            <mxPoint x="710" y="570" as="targetPoint" />
            <Array as="points">
              <mxPoint x="620" y="500" />
            </Array>
          </mxGeometry>
        </mxCell>
        <mxCell id="fWfnY4XCKVbtA2HmcBdE-23" value="&lt;font&gt;49999&lt;/font&gt;" style="edgeLabel;html=1;align=center;verticalAlign=middle;resizable=0;points=[];fontSize=14;fontColor=#CCCCCC;" parent="fWfnY4XCKVbtA2HmcBdE-22" vertex="1" connectable="0">
          <mxGeometry x="-0.0067" y="1" relative="1" as="geometry">
            <mxPoint x="1" y="-31" as="offset" />
          </mxGeometry>
        </mxCell>
        <mxCell id="fWfnY4XCKVbtA2HmcBdE-24" value="" style="endArrow=classic;html=1;rounded=0;exitX=0.5;exitY=1;exitDx=0;exitDy=0;entryX=0.5;entryY=0;entryDx=0;entryDy=0;strokeColor=#999999;" parent="1" source="fWfnY4XCKVbtA2HmcBdE-4" target="fWfnY4XCKVbtA2HmcBdE-5" edge="1">
          <mxGeometry width="50" height="50" relative="1" as="geometry">
            <mxPoint x="610" y="510" as="sourcePoint" />
            <mxPoint x="650" y="450" as="targetPoint" />
            <Array as="points" />
          </mxGeometry>
        </mxCell>
        <mxCell id="fWfnY4XCKVbtA2HmcBdE-25" value="&lt;font&gt;49998&lt;/font&gt;" style="edgeLabel;html=1;align=center;verticalAlign=middle;resizable=0;points=[];fontSize=14;fontColor=#CCCCCC;" parent="fWfnY4XCKVbtA2HmcBdE-24" vertex="1" connectable="0">
          <mxGeometry x="-0.0067" y="1" relative="1" as="geometry">
            <mxPoint x="-1" as="offset" />
          </mxGeometry>
        </mxCell>
        <mxCell id="fWfnY4XCKVbtA2HmcBdE-28" value="" style="endArrow=classic;html=1;rounded=0;entryX=1;entryY=0.75;entryDx=0;entryDy=0;exitX=0;exitY=0.75;exitDx=0;exitDy=0;strokeColor=#999999;" parent="1" source="fWfnY4XCKVbtA2HmcBdE-5" target="fWfnY4XCKVbtA2HmcBdE-1" edge="1">
          <mxGeometry width="50" height="50" relative="1" as="geometry">
            <mxPoint x="450" y="340" as="sourcePoint" />
            <mxPoint x="330" y="340" as="targetPoint" />
          </mxGeometry>
        </mxCell>
        <mxCell id="fWfnY4XCKVbtA2HmcBdE-29" value="&lt;font&gt;8080&lt;/font&gt;" style="edgeLabel;html=1;align=center;verticalAlign=middle;resizable=0;points=[];fontSize=14;fontColor=#CCCCCC;" parent="fWfnY4XCKVbtA2HmcBdE-28" vertex="1" connectable="0">
          <mxGeometry x="-0.0067" y="1" relative="1" as="geometry">
            <mxPoint as="offset" />
          </mxGeometry>
        </mxCell>
        <mxCell id="fWfnY4XCKVbtA2HmcBdE-30" value="" style="endArrow=classic;html=1;rounded=0;entryX=1;entryY=0.25;entryDx=0;entryDy=0;exitX=0;exitY=0.5;exitDx=0;exitDy=0;strokeColor=#999999;" parent="1" source="fWfnY4XCKVbtA2HmcBdE-4" target="fWfnY4XCKVbtA2HmcBdE-1" edge="1">
          <mxGeometry width="50" height="50" relative="1" as="geometry">
            <mxPoint x="650" y="380" as="sourcePoint" />
            <mxPoint x="530" y="380" as="targetPoint" />
            <Array as="points">
              <mxPoint x="490" y="190" />
              <mxPoint x="490" y="340" />
            </Array>
          </mxGeometry>
        </mxCell>
        <mxCell id="fWfnY4XCKVbtA2HmcBdE-31" value="&lt;font&gt;8080&lt;/font&gt;" style="edgeLabel;html=1;align=center;verticalAlign=middle;resizable=0;points=[];fontSize=14;fontColor=#CCCCCC;" parent="fWfnY4XCKVbtA2HmcBdE-30" vertex="1" connectable="0">
          <mxGeometry x="-0.0067" y="1" relative="1" as="geometry">
            <mxPoint as="offset" />
          </mxGeometry>
        </mxCell>
        <mxCell id="fWfnY4XCKVbtA2HmcBdE-32" value="" style="endArrow=classic;html=1;rounded=0;entryX=0;entryY=0.75;entryDx=0;entryDy=0;exitX=1;exitY=0.5;exitDx=0;exitDy=0;strokeColor=#999999;" parent="1" source="fWfnY4XCKVbtA2HmcBdE-1" target="fWfnY4XCKVbtA2HmcBdE-4" edge="1">
          <mxGeometry width="50" height="50" relative="1" as="geometry">
            <mxPoint x="640" y="290" as="sourcePoint" />
            <mxPoint x="520" y="490" as="targetPoint" />
            <Array as="points">
              <mxPoint x="520" y="360" />
              <mxPoint x="520" y="210" />
            </Array>
          </mxGeometry>
        </mxCell>
        <mxCell id="fWfnY4XCKVbtA2HmcBdE-33" value="&lt;font&gt;50000&lt;/font&gt;" style="edgeLabel;html=1;align=center;verticalAlign=middle;resizable=0;points=[];fontSize=14;fontColor=#CCCCCC;" parent="fWfnY4XCKVbtA2HmcBdE-32" vertex="1" connectable="0">
          <mxGeometry x="-0.0067" y="1" relative="1" as="geometry">
            <mxPoint as="offset" />
          </mxGeometry>
        </mxCell>
      </root>
    </mxGraphModel>
  </diagram>
  <diagram id="QUR_U4ZYwfAP12jO5j7n" name="MC">
    <mxGraphModel dx="1410" dy="770" grid="1" gridSize="10" guides="1" tooltips="1" connect="1" arrows="1" fold="1" page="1" pageScale="1" pageWidth="827" pageHeight="1169" math="0" shadow="0">
      <root>
        <mxCell id="0" />
        <mxCell id="1" parent="0" />
        <mxCell id="pLRprj4Pg0xan8QSLBlk-1" value="&lt;font style=&quot;font-size: 16px;&quot;&gt;MC&lt;/font&gt;" style="whiteSpace=wrap;html=1;aspect=fixed;fillColor=#009900;strokeColor=#82b366;fontColor=#FFFFFF;" vertex="1" parent="1">
          <mxGeometry x="374" y="270" width="80" height="80" as="geometry" />
        </mxCell>
        <mxCell id="pLRprj4Pg0xan8QSLBlk-2" value="&lt;font style=&quot;font-size: 16px;&quot;&gt;Kapplets&lt;/font&gt;" style="whiteSpace=wrap;html=1;aspect=fixed;fillColor=#d5e8d4;strokeColor=#82b366;" vertex="1" parent="1">
          <mxGeometry x="174" y="270" width="80" height="80" as="geometry" />
        </mxCell>
        <mxCell id="pLRprj4Pg0xan8QSLBlk-3" value="&lt;font style=&quot;font-size: 16px;&quot;&gt;RS&lt;/font&gt;" style="whiteSpace=wrap;html=1;aspect=fixed;fillColor=#d5e8d4;strokeColor=#82b366;" vertex="1" parent="1">
          <mxGeometry x="574" y="100" width="80" height="80" as="geometry" />
        </mxCell>
        <mxCell id="pLRprj4Pg0xan8QSLBlk-4" value="&lt;font style=&quot;font-size: 16px;&quot;&gt;DAS&lt;/font&gt;" style="whiteSpace=wrap;html=1;aspect=fixed;strokeColor=#999999;fontColor=#999999;" vertex="1" parent="1">
          <mxGeometry x="574" y="270" width="80" height="80" as="geometry" />
        </mxCell>
        <mxCell id="pLRprj4Pg0xan8QSLBlk-5" value="&lt;font style=&quot;font-size: 16px;&quot;&gt;DS&lt;/font&gt;" style="whiteSpace=wrap;html=1;aspect=fixed;strokeColor=#999999;fontColor=#999999;" vertex="1" parent="1">
          <mxGeometry x="474" y="390" width="80" height="80" as="geometry" />
        </mxCell>
        <mxCell id="pLRprj4Pg0xan8QSLBlk-6" value="&lt;font style=&quot;font-size: 16px;&quot;&gt;DB&lt;/font&gt;" style="shape=cylinder3;whiteSpace=wrap;html=1;boundedLbl=1;backgroundOutline=1;size=15;fillColor=#d5e8d4;strokeColor=#82b366;" vertex="1" parent="1">
          <mxGeometry x="374" y="100" width="80" height="80" as="geometry" />
        </mxCell>
        <mxCell id="pLRprj4Pg0xan8QSLBlk-7" value="" style="endArrow=classic;html=1;rounded=0;entryX=1;entryY=0.25;entryDx=0;entryDy=0;exitX=0;exitY=0.25;exitDx=0;exitDy=0;strokeColor=#009900;strokeWidth=3;" edge="1" parent="1" source="pLRprj4Pg0xan8QSLBlk-1" target="pLRprj4Pg0xan8QSLBlk-2">
          <mxGeometry width="50" height="50" relative="1" as="geometry">
            <mxPoint x="394" y="440" as="sourcePoint" />
            <mxPoint x="444" y="390" as="targetPoint" />
          </mxGeometry>
        </mxCell>
        <mxCell id="pLRprj4Pg0xan8QSLBlk-8" value="&lt;font&gt;8080&lt;/font&gt;" style="edgeLabel;html=1;align=center;verticalAlign=middle;resizable=0;points=[];fontSize=14;" vertex="1" connectable="0" parent="pLRprj4Pg0xan8QSLBlk-7">
          <mxGeometry x="-0.0067" y="1" relative="1" as="geometry">
            <mxPoint as="offset" />
          </mxGeometry>
        </mxCell>
        <mxCell id="pLRprj4Pg0xan8QSLBlk-9" value="" style="endArrow=classic;html=1;rounded=0;exitX=0.5;exitY=0;exitDx=0;exitDy=0;strokeWidth=3;strokeColor=#009900;" edge="1" parent="1" source="pLRprj4Pg0xan8QSLBlk-1" target="pLRprj4Pg0xan8QSLBlk-6">
          <mxGeometry width="50" height="50" relative="1" as="geometry">
            <mxPoint x="404" y="340" as="sourcePoint" />
            <mxPoint x="454" y="290" as="targetPoint" />
          </mxGeometry>
        </mxCell>
        <mxCell id="pLRprj4Pg0xan8QSLBlk-10" value="&lt;font style=&quot;font-size: 14px;&quot;&gt;3306&lt;/font&gt;" style="edgeLabel;html=1;align=center;verticalAlign=middle;resizable=0;points=[];" vertex="1" connectable="0" parent="pLRprj4Pg0xan8QSLBlk-9">
          <mxGeometry x="-0.0867" y="-1" relative="1" as="geometry">
            <mxPoint as="offset" />
          </mxGeometry>
        </mxCell>
        <mxCell id="pLRprj4Pg0xan8QSLBlk-11" value="" style="endArrow=classic;html=1;rounded=0;entryX=1.017;entryY=0.251;entryDx=0;entryDy=0;entryPerimeter=0;exitX=0;exitY=0.25;exitDx=0;exitDy=0;strokeColor=#999999;" edge="1" parent="1" source="pLRprj4Pg0xan8QSLBlk-3" target="pLRprj4Pg0xan8QSLBlk-6">
          <mxGeometry width="50" height="50" relative="1" as="geometry">
            <mxPoint x="404" y="260" as="sourcePoint" />
            <mxPoint x="454" y="210" as="targetPoint" />
            <Array as="points">
              <mxPoint x="514" y="120" />
            </Array>
          </mxGeometry>
        </mxCell>
        <mxCell id="pLRprj4Pg0xan8QSLBlk-12" value="&lt;font style=&quot;font-size: 14px;&quot;&gt;3306&lt;/font&gt;" style="edgeLabel;html=1;align=center;verticalAlign=middle;resizable=0;points=[];fontColor=#CCCCCC;" vertex="1" connectable="0" parent="pLRprj4Pg0xan8QSLBlk-11">
          <mxGeometry x="-0.0371" y="-1" relative="1" as="geometry">
            <mxPoint as="offset" />
          </mxGeometry>
        </mxCell>
        <mxCell id="pLRprj4Pg0xan8QSLBlk-13" value="" style="endArrow=classic;html=1;rounded=0;exitX=0.5;exitY=0;exitDx=0;exitDy=0;entryX=0;entryY=0.5;entryDx=0;entryDy=0;entryPerimeter=0;strokeColor=#999999;" edge="1" parent="1" target="pLRprj4Pg0xan8QSLBlk-6">
          <mxGeometry width="50" height="50" relative="1" as="geometry">
            <mxPoint x="213.5" y="270" as="sourcePoint" />
            <mxPoint x="213.5" y="150" as="targetPoint" />
            <Array as="points">
              <mxPoint x="214" y="140" />
            </Array>
          </mxGeometry>
        </mxCell>
        <mxCell id="pLRprj4Pg0xan8QSLBlk-14" value="&lt;font style=&quot;font-size: 14px;&quot;&gt;3306&lt;/font&gt;" style="edgeLabel;html=1;align=center;verticalAlign=middle;resizable=0;points=[];fontColor=#CCCCCC;" vertex="1" connectable="0" parent="pLRprj4Pg0xan8QSLBlk-13">
          <mxGeometry x="-0.0867" y="-1" relative="1" as="geometry">
            <mxPoint x="-1" y="16" as="offset" />
          </mxGeometry>
        </mxCell>
        <mxCell id="pLRprj4Pg0xan8QSLBlk-15" value="" style="endArrow=classic;html=1;rounded=0;entryX=0;entryY=0.75;entryDx=0;entryDy=0;exitX=1;exitY=0.75;exitDx=0;exitDy=0;strokeColor=#999999;" edge="1" parent="1" source="pLRprj4Pg0xan8QSLBlk-2" target="pLRprj4Pg0xan8QSLBlk-1">
          <mxGeometry width="50" height="50" relative="1" as="geometry">
            <mxPoint x="424" y="430" as="sourcePoint" />
            <mxPoint x="304" y="430" as="targetPoint" />
          </mxGeometry>
        </mxCell>
        <mxCell id="pLRprj4Pg0xan8QSLBlk-16" value="&lt;font&gt;8080&lt;/font&gt;" style="edgeLabel;html=1;align=center;verticalAlign=middle;resizable=0;points=[];fontSize=14;fontColor=#CCCCCC;" vertex="1" connectable="0" parent="pLRprj4Pg0xan8QSLBlk-15">
          <mxGeometry x="-0.0067" y="1" relative="1" as="geometry">
            <mxPoint as="offset" />
          </mxGeometry>
        </mxCell>
        <mxCell id="pLRprj4Pg0xan8QSLBlk-17" value="" style="endArrow=classic;html=1;rounded=0;exitX=0;exitY=0.5;exitDx=0;exitDy=0;strokeColor=#999999;" edge="1" parent="1" source="pLRprj4Pg0xan8QSLBlk-5">
          <mxGeometry width="50" height="50" relative="1" as="geometry">
            <mxPoint x="344" y="490" as="sourcePoint" />
            <mxPoint x="414" y="350" as="targetPoint" />
            <Array as="points">
              <mxPoint x="414" y="430" />
            </Array>
          </mxGeometry>
        </mxCell>
        <mxCell id="pLRprj4Pg0xan8QSLBlk-18" value="&lt;font&gt;8080&lt;/font&gt;" style="edgeLabel;html=1;align=center;verticalAlign=middle;resizable=0;points=[];fontSize=14;fontColor=#CCCCCC;" vertex="1" connectable="0" parent="pLRprj4Pg0xan8QSLBlk-17">
          <mxGeometry x="-0.0067" y="1" relative="1" as="geometry">
            <mxPoint x="1" y="-20" as="offset" />
          </mxGeometry>
        </mxCell>
        <mxCell id="pLRprj4Pg0xan8QSLBlk-19" value="" style="endArrow=classic;html=1;rounded=0;exitX=1;exitY=0.25;exitDx=0;exitDy=0;entryX=0.25;entryY=1;entryDx=0;entryDy=0;strokeColor=#999999;" edge="1" parent="1" source="pLRprj4Pg0xan8QSLBlk-5" target="pLRprj4Pg0xan8QSLBlk-4">
          <mxGeometry width="50" height="50" relative="1" as="geometry">
            <mxPoint x="674" y="550" as="sourcePoint" />
            <mxPoint x="614" y="470" as="targetPoint" />
            <Array as="points">
              <mxPoint x="594" y="410" />
            </Array>
          </mxGeometry>
        </mxCell>
        <mxCell id="pLRprj4Pg0xan8QSLBlk-20" value="&lt;font&gt;49998&lt;/font&gt;" style="edgeLabel;html=1;align=center;verticalAlign=middle;resizable=0;points=[];fontSize=14;fontColor=#CCCCCC;" vertex="1" connectable="0" parent="pLRprj4Pg0xan8QSLBlk-19">
          <mxGeometry x="-0.0067" y="1" relative="1" as="geometry">
            <mxPoint x="1" y="-20" as="offset" />
          </mxGeometry>
        </mxCell>
        <mxCell id="pLRprj4Pg0xan8QSLBlk-21" value="" style="endArrow=classic;html=1;rounded=0;exitX=1;exitY=0.75;exitDx=0;exitDy=0;entryX=0.75;entryY=1;entryDx=0;entryDy=0;strokeColor=#999999;" edge="1" parent="1" source="pLRprj4Pg0xan8QSLBlk-5" target="pLRprj4Pg0xan8QSLBlk-4">
          <mxGeometry width="50" height="50" relative="1" as="geometry">
            <mxPoint x="684" y="580" as="sourcePoint" />
            <mxPoint x="724" y="520" as="targetPoint" />
            <Array as="points">
              <mxPoint x="634" y="450" />
            </Array>
          </mxGeometry>
        </mxCell>
        <mxCell id="pLRprj4Pg0xan8QSLBlk-22" value="&lt;font&gt;49999&lt;/font&gt;" style="edgeLabel;html=1;align=center;verticalAlign=middle;resizable=0;points=[];fontSize=14;fontColor=#CCCCCC;" vertex="1" connectable="0" parent="pLRprj4Pg0xan8QSLBlk-21">
          <mxGeometry x="-0.0067" y="1" relative="1" as="geometry">
            <mxPoint x="1" y="-31" as="offset" />
          </mxGeometry>
        </mxCell>
        <mxCell id="pLRprj4Pg0xan8QSLBlk-23" value="" style="endArrow=classic;html=1;rounded=0;exitX=0.5;exitY=1;exitDx=0;exitDy=0;entryX=0.5;entryY=0;entryDx=0;entryDy=0;strokeColor=#999999;" edge="1" parent="1" source="pLRprj4Pg0xan8QSLBlk-3" target="pLRprj4Pg0xan8QSLBlk-4">
          <mxGeometry width="50" height="50" relative="1" as="geometry">
            <mxPoint x="624" y="460" as="sourcePoint" />
            <mxPoint x="664" y="400" as="targetPoint" />
            <Array as="points" />
          </mxGeometry>
        </mxCell>
        <mxCell id="pLRprj4Pg0xan8QSLBlk-24" value="&lt;font&gt;49998&lt;/font&gt;" style="edgeLabel;html=1;align=center;verticalAlign=middle;resizable=0;points=[];fontSize=14;fontColor=#CCCCCC;" vertex="1" connectable="0" parent="pLRprj4Pg0xan8QSLBlk-23">
          <mxGeometry x="-0.0067" y="1" relative="1" as="geometry">
            <mxPoint x="-1" as="offset" />
          </mxGeometry>
        </mxCell>
        <mxCell id="pLRprj4Pg0xan8QSLBlk-25" value="" style="endArrow=classic;html=1;rounded=0;entryX=1;entryY=0.75;entryDx=0;entryDy=0;exitX=0;exitY=0.75;exitDx=0;exitDy=0;strokeColor=#999999;" edge="1" parent="1" source="pLRprj4Pg0xan8QSLBlk-4" target="pLRprj4Pg0xan8QSLBlk-1">
          <mxGeometry width="50" height="50" relative="1" as="geometry">
            <mxPoint x="464" y="290" as="sourcePoint" />
            <mxPoint x="344" y="290" as="targetPoint" />
          </mxGeometry>
        </mxCell>
        <mxCell id="pLRprj4Pg0xan8QSLBlk-26" value="&lt;font&gt;8080&lt;/font&gt;" style="edgeLabel;html=1;align=center;verticalAlign=middle;resizable=0;points=[];fontSize=14;fontColor=#CCCCCC;" vertex="1" connectable="0" parent="pLRprj4Pg0xan8QSLBlk-25">
          <mxGeometry x="-0.0067" y="1" relative="1" as="geometry">
            <mxPoint as="offset" />
          </mxGeometry>
        </mxCell>
        <mxCell id="pLRprj4Pg0xan8QSLBlk-27" value="" style="endArrow=classic;html=1;rounded=0;entryX=1;entryY=0.25;entryDx=0;entryDy=0;exitX=0;exitY=0.5;exitDx=0;exitDy=0;strokeColor=#999999;" edge="1" parent="1" source="pLRprj4Pg0xan8QSLBlk-3" target="pLRprj4Pg0xan8QSLBlk-1">
          <mxGeometry width="50" height="50" relative="1" as="geometry">
            <mxPoint x="664" y="330" as="sourcePoint" />
            <mxPoint x="544" y="330" as="targetPoint" />
            <Array as="points">
              <mxPoint x="504" y="140" />
              <mxPoint x="504" y="290" />
            </Array>
          </mxGeometry>
        </mxCell>
        <mxCell id="pLRprj4Pg0xan8QSLBlk-28" value="&lt;font&gt;8080&lt;/font&gt;" style="edgeLabel;html=1;align=center;verticalAlign=middle;resizable=0;points=[];fontSize=14;fontColor=#CCCCCC;" vertex="1" connectable="0" parent="pLRprj4Pg0xan8QSLBlk-27">
          <mxGeometry x="-0.0067" y="1" relative="1" as="geometry">
            <mxPoint as="offset" />
          </mxGeometry>
        </mxCell>
        <mxCell id="pLRprj4Pg0xan8QSLBlk-29" value="" style="endArrow=classic;html=1;rounded=0;entryX=0;entryY=0.75;entryDx=0;entryDy=0;exitX=1;exitY=0.5;exitDx=0;exitDy=0;strokeColor=#009900;strokeWidth=3;" edge="1" parent="1" source="pLRprj4Pg0xan8QSLBlk-1" target="pLRprj4Pg0xan8QSLBlk-3">
          <mxGeometry width="50" height="50" relative="1" as="geometry">
            <mxPoint x="654" y="240" as="sourcePoint" />
            <mxPoint x="534" y="440" as="targetPoint" />
            <Array as="points">
              <mxPoint x="534" y="310" />
              <mxPoint x="534" y="160" />
            </Array>
          </mxGeometry>
        </mxCell>
        <mxCell id="pLRprj4Pg0xan8QSLBlk-30" value="&lt;font&gt;50000&lt;/font&gt;" style="edgeLabel;html=1;align=center;verticalAlign=middle;resizable=0;points=[];fontSize=14;" vertex="1" connectable="0" parent="pLRprj4Pg0xan8QSLBlk-29">
          <mxGeometry x="-0.0067" y="1" relative="1" as="geometry">
            <mxPoint as="offset" />
          </mxGeometry>
        </mxCell>
      </root>
    </mxGraphModel>
  </diagram>
  <diagram id="Gtkc8Zx3dbY-Oq4laFlB" name="RS">
    <mxGraphModel dx="1410" dy="770" grid="1" gridSize="10" guides="1" tooltips="1" connect="1" arrows="1" fold="1" page="1" pageScale="1" pageWidth="827" pageHeight="1169" math="0" shadow="0">
      <root>
        <mxCell id="0" />
        <mxCell id="1" parent="0" />
        <mxCell id="AmlY3kv_-LlM0IuvkEDd-1" value="&lt;font style=&quot;font-size: 16px;&quot;&gt;MC&lt;/font&gt;" style="whiteSpace=wrap;html=1;aspect=fixed;strokeColor=#82b366;fillColor=#d5e8d4;" vertex="1" parent="1">
          <mxGeometry x="330" y="240" width="80" height="80" as="geometry" />
        </mxCell>
        <mxCell id="AmlY3kv_-LlM0IuvkEDd-2" value="&lt;font style=&quot;font-size: 16px;&quot;&gt;Kapplets&lt;/font&gt;" style="whiteSpace=wrap;html=1;aspect=fixed;strokeColor=light-dark(#999999,#EDEDED);fontColor=#999999;" vertex="1" parent="1">
          <mxGeometry x="130" y="240" width="80" height="80" as="geometry" />
        </mxCell>
        <mxCell id="AmlY3kv_-LlM0IuvkEDd-3" value="&lt;font style=&quot;font-size: 16px;&quot;&gt;RS&lt;/font&gt;" style="whiteSpace=wrap;html=1;aspect=fixed;strokeColor=#82b366;fillColor=#009900;fontColor=#FFFFFF;" vertex="1" parent="1">
          <mxGeometry x="530" y="70" width="80" height="80" as="geometry" />
        </mxCell>
        <mxCell id="AmlY3kv_-LlM0IuvkEDd-4" value="&lt;font style=&quot;font-size: 16px;&quot;&gt;DAS&lt;/font&gt;" style="whiteSpace=wrap;html=1;aspect=fixed;strokeColor=#82b366;fillColor=#d5e8d4;" vertex="1" parent="1">
          <mxGeometry x="530" y="240" width="80" height="80" as="geometry" />
        </mxCell>
        <mxCell id="AmlY3kv_-LlM0IuvkEDd-5" value="&lt;font style=&quot;font-size: 16px;&quot;&gt;DS&lt;/font&gt;" style="whiteSpace=wrap;html=1;aspect=fixed;strokeColor=light-dark(#999999,#EDEDED);fontColor=#999999;" vertex="1" parent="1">
          <mxGeometry x="430" y="360" width="80" height="80" as="geometry" />
        </mxCell>
        <mxCell id="AmlY3kv_-LlM0IuvkEDd-6" value="&lt;font style=&quot;font-size: 16px;&quot;&gt;DB&lt;/font&gt;" style="shape=cylinder3;whiteSpace=wrap;html=1;boundedLbl=1;backgroundOutline=1;size=15;strokeColor=#82b366;fillColor=#d5e8d4;" vertex="1" parent="1">
          <mxGeometry x="330" y="70" width="80" height="80" as="geometry" />
        </mxCell>
        <mxCell id="AmlY3kv_-LlM0IuvkEDd-7" value="" style="endArrow=classic;html=1;rounded=0;entryX=1;entryY=0.25;entryDx=0;entryDy=0;exitX=0;exitY=0.25;exitDx=0;exitDy=0;strokeColor=#999999;" edge="1" parent="1" source="AmlY3kv_-LlM0IuvkEDd-1" target="AmlY3kv_-LlM0IuvkEDd-2">
          <mxGeometry width="50" height="50" relative="1" as="geometry">
            <mxPoint x="350" y="410" as="sourcePoint" />
            <mxPoint x="400" y="360" as="targetPoint" />
          </mxGeometry>
        </mxCell>
        <mxCell id="AmlY3kv_-LlM0IuvkEDd-8" value="&lt;font&gt;8080&lt;/font&gt;" style="edgeLabel;html=1;align=center;verticalAlign=middle;resizable=0;points=[];fontSize=14;fontColor=#CCCCCC;" vertex="1" connectable="0" parent="AmlY3kv_-LlM0IuvkEDd-7">
          <mxGeometry x="-0.0067" y="1" relative="1" as="geometry">
            <mxPoint as="offset" />
          </mxGeometry>
        </mxCell>
        <mxCell id="AmlY3kv_-LlM0IuvkEDd-9" value="" style="endArrow=classic;html=1;rounded=0;exitX=0.5;exitY=0;exitDx=0;exitDy=0;strokeColor=#999999;" edge="1" parent="1" source="AmlY3kv_-LlM0IuvkEDd-1" target="AmlY3kv_-LlM0IuvkEDd-6">
          <mxGeometry width="50" height="50" relative="1" as="geometry">
            <mxPoint x="360" y="310" as="sourcePoint" />
            <mxPoint x="410" y="260" as="targetPoint" />
          </mxGeometry>
        </mxCell>
        <mxCell id="AmlY3kv_-LlM0IuvkEDd-10" value="&lt;font style=&quot;font-size: 14px;&quot;&gt;3306&lt;/font&gt;" style="edgeLabel;html=1;align=center;verticalAlign=middle;resizable=0;points=[];fontColor=#CCCCCC;" vertex="1" connectable="0" parent="AmlY3kv_-LlM0IuvkEDd-9">
          <mxGeometry x="-0.0867" y="-1" relative="1" as="geometry">
            <mxPoint as="offset" />
          </mxGeometry>
        </mxCell>
        <mxCell id="AmlY3kv_-LlM0IuvkEDd-11" value="" style="endArrow=classic;html=1;rounded=0;entryX=1.017;entryY=0.251;entryDx=0;entryDy=0;entryPerimeter=0;exitX=0;exitY=0.25;exitDx=0;exitDy=0;strokeColor=#009900;strokeWidth=3;" edge="1" parent="1" source="AmlY3kv_-LlM0IuvkEDd-3" target="AmlY3kv_-LlM0IuvkEDd-6">
          <mxGeometry width="50" height="50" relative="1" as="geometry">
            <mxPoint x="360" y="230" as="sourcePoint" />
            <mxPoint x="410" y="180" as="targetPoint" />
            <Array as="points">
              <mxPoint x="470" y="90" />
            </Array>
          </mxGeometry>
        </mxCell>
        <mxCell id="AmlY3kv_-LlM0IuvkEDd-12" value="&lt;font style=&quot;font-size: 14px;&quot;&gt;3306&lt;/font&gt;" style="edgeLabel;html=1;align=center;verticalAlign=middle;resizable=0;points=[];fontColor=#000000;" vertex="1" connectable="0" parent="AmlY3kv_-LlM0IuvkEDd-11">
          <mxGeometry x="-0.0371" y="-1" relative="1" as="geometry">
            <mxPoint as="offset" />
          </mxGeometry>
        </mxCell>
        <mxCell id="AmlY3kv_-LlM0IuvkEDd-13" value="" style="endArrow=classic;html=1;rounded=0;exitX=0.5;exitY=0;exitDx=0;exitDy=0;entryX=0;entryY=0.5;entryDx=0;entryDy=0;entryPerimeter=0;strokeColor=#999999;" edge="1" parent="1" target="AmlY3kv_-LlM0IuvkEDd-6">
          <mxGeometry width="50" height="50" relative="1" as="geometry">
            <mxPoint x="169.5" y="240" as="sourcePoint" />
            <mxPoint x="169.5" y="120" as="targetPoint" />
            <Array as="points">
              <mxPoint x="170" y="110" />
            </Array>
          </mxGeometry>
        </mxCell>
        <mxCell id="AmlY3kv_-LlM0IuvkEDd-14" value="&lt;font style=&quot;font-size: 14px;&quot;&gt;3306&lt;/font&gt;" style="edgeLabel;html=1;align=center;verticalAlign=middle;resizable=0;points=[];fontColor=#CCCCCC;" vertex="1" connectable="0" parent="AmlY3kv_-LlM0IuvkEDd-13">
          <mxGeometry x="-0.0867" y="-1" relative="1" as="geometry">
            <mxPoint x="-1" y="16" as="offset" />
          </mxGeometry>
        </mxCell>
        <mxCell id="AmlY3kv_-LlM0IuvkEDd-15" value="" style="endArrow=classic;html=1;rounded=0;entryX=0;entryY=0.75;entryDx=0;entryDy=0;exitX=1;exitY=0.75;exitDx=0;exitDy=0;strokeColor=#999999;" edge="1" parent="1" source="AmlY3kv_-LlM0IuvkEDd-2" target="AmlY3kv_-LlM0IuvkEDd-1">
          <mxGeometry width="50" height="50" relative="1" as="geometry">
            <mxPoint x="380" y="400" as="sourcePoint" />
            <mxPoint x="260" y="400" as="targetPoint" />
          </mxGeometry>
        </mxCell>
        <mxCell id="AmlY3kv_-LlM0IuvkEDd-16" value="&lt;font&gt;8080&lt;/font&gt;" style="edgeLabel;html=1;align=center;verticalAlign=middle;resizable=0;points=[];fontSize=14;fontColor=#CCCCCC;" vertex="1" connectable="0" parent="AmlY3kv_-LlM0IuvkEDd-15">
          <mxGeometry x="-0.0067" y="1" relative="1" as="geometry">
            <mxPoint as="offset" />
          </mxGeometry>
        </mxCell>
        <mxCell id="AmlY3kv_-LlM0IuvkEDd-17" value="" style="endArrow=classic;html=1;rounded=0;exitX=0;exitY=0.5;exitDx=0;exitDy=0;strokeColor=#999999;" edge="1" parent="1" source="AmlY3kv_-LlM0IuvkEDd-5">
          <mxGeometry width="50" height="50" relative="1" as="geometry">
            <mxPoint x="300" y="460" as="sourcePoint" />
            <mxPoint x="370" y="320" as="targetPoint" />
            <Array as="points">
              <mxPoint x="370" y="400" />
            </Array>
          </mxGeometry>
        </mxCell>
        <mxCell id="AmlY3kv_-LlM0IuvkEDd-18" value="&lt;font&gt;8080&lt;/font&gt;" style="edgeLabel;html=1;align=center;verticalAlign=middle;resizable=0;points=[];fontSize=14;fontColor=#CCCCCC;" vertex="1" connectable="0" parent="AmlY3kv_-LlM0IuvkEDd-17">
          <mxGeometry x="-0.0067" y="1" relative="1" as="geometry">
            <mxPoint x="1" y="-20" as="offset" />
          </mxGeometry>
        </mxCell>
        <mxCell id="AmlY3kv_-LlM0IuvkEDd-19" value="" style="endArrow=classic;html=1;rounded=0;exitX=1;exitY=0.25;exitDx=0;exitDy=0;entryX=0.25;entryY=1;entryDx=0;entryDy=0;strokeColor=#999999;" edge="1" parent="1" source="AmlY3kv_-LlM0IuvkEDd-5" target="AmlY3kv_-LlM0IuvkEDd-4">
          <mxGeometry width="50" height="50" relative="1" as="geometry">
            <mxPoint x="630" y="520" as="sourcePoint" />
            <mxPoint x="570" y="440" as="targetPoint" />
            <Array as="points">
              <mxPoint x="550" y="380" />
            </Array>
          </mxGeometry>
        </mxCell>
        <mxCell id="AmlY3kv_-LlM0IuvkEDd-20" value="&lt;font&gt;49998&lt;/font&gt;" style="edgeLabel;html=1;align=center;verticalAlign=middle;resizable=0;points=[];fontSize=14;fontColor=#CCCCCC;" vertex="1" connectable="0" parent="AmlY3kv_-LlM0IuvkEDd-19">
          <mxGeometry x="-0.0067" y="1" relative="1" as="geometry">
            <mxPoint x="1" y="-20" as="offset" />
          </mxGeometry>
        </mxCell>
        <mxCell id="AmlY3kv_-LlM0IuvkEDd-21" value="" style="endArrow=classic;html=1;rounded=0;exitX=1;exitY=0.75;exitDx=0;exitDy=0;entryX=0.75;entryY=1;entryDx=0;entryDy=0;strokeColor=#999999;" edge="1" parent="1" source="AmlY3kv_-LlM0IuvkEDd-5" target="AmlY3kv_-LlM0IuvkEDd-4">
          <mxGeometry width="50" height="50" relative="1" as="geometry">
            <mxPoint x="640" y="550" as="sourcePoint" />
            <mxPoint x="680" y="490" as="targetPoint" />
            <Array as="points">
              <mxPoint x="590" y="420" />
            </Array>
          </mxGeometry>
        </mxCell>
        <mxCell id="AmlY3kv_-LlM0IuvkEDd-22" value="&lt;font&gt;49999&lt;/font&gt;" style="edgeLabel;html=1;align=center;verticalAlign=middle;resizable=0;points=[];fontSize=14;fontColor=#CCCCCC;" vertex="1" connectable="0" parent="AmlY3kv_-LlM0IuvkEDd-21">
          <mxGeometry x="-0.0067" y="1" relative="1" as="geometry">
            <mxPoint x="1" y="-31" as="offset" />
          </mxGeometry>
        </mxCell>
        <mxCell id="AmlY3kv_-LlM0IuvkEDd-23" value="" style="endArrow=classic;html=1;rounded=0;exitX=0.5;exitY=1;exitDx=0;exitDy=0;entryX=0.5;entryY=0;entryDx=0;entryDy=0;strokeColor=#009900;strokeWidth=3;" edge="1" parent="1" source="AmlY3kv_-LlM0IuvkEDd-3" target="AmlY3kv_-LlM0IuvkEDd-4">
          <mxGeometry width="50" height="50" relative="1" as="geometry">
            <mxPoint x="580" y="430" as="sourcePoint" />
            <mxPoint x="620" y="370" as="targetPoint" />
            <Array as="points" />
          </mxGeometry>
        </mxCell>
        <mxCell id="AmlY3kv_-LlM0IuvkEDd-24" value="&lt;font&gt;49998&lt;/font&gt;" style="edgeLabel;html=1;align=center;verticalAlign=middle;resizable=0;points=[];fontSize=14;fontColor=#000000;" vertex="1" connectable="0" parent="AmlY3kv_-LlM0IuvkEDd-23">
          <mxGeometry x="-0.0067" y="1" relative="1" as="geometry">
            <mxPoint x="-1" as="offset" />
          </mxGeometry>
        </mxCell>
        <mxCell id="AmlY3kv_-LlM0IuvkEDd-25" value="" style="endArrow=classic;html=1;rounded=0;entryX=1;entryY=0.75;entryDx=0;entryDy=0;exitX=0;exitY=0.75;exitDx=0;exitDy=0;strokeColor=#999999;" edge="1" parent="1" source="AmlY3kv_-LlM0IuvkEDd-4" target="AmlY3kv_-LlM0IuvkEDd-1">
          <mxGeometry width="50" height="50" relative="1" as="geometry">
            <mxPoint x="420" y="260" as="sourcePoint" />
            <mxPoint x="300" y="260" as="targetPoint" />
          </mxGeometry>
        </mxCell>
        <mxCell id="AmlY3kv_-LlM0IuvkEDd-26" value="&lt;font&gt;8080&lt;/font&gt;" style="edgeLabel;html=1;align=center;verticalAlign=middle;resizable=0;points=[];fontSize=14;fontColor=#CCCCCC;" vertex="1" connectable="0" parent="AmlY3kv_-LlM0IuvkEDd-25">
          <mxGeometry x="-0.0067" y="1" relative="1" as="geometry">
            <mxPoint as="offset" />
          </mxGeometry>
        </mxCell>
        <mxCell id="AmlY3kv_-LlM0IuvkEDd-27" value="" style="endArrow=classic;html=1;rounded=0;entryX=1;entryY=0.25;entryDx=0;entryDy=0;exitX=0;exitY=0.5;exitDx=0;exitDy=0;strokeColor=#009900;strokeWidth=3;" edge="1" parent="1" source="AmlY3kv_-LlM0IuvkEDd-3" target="AmlY3kv_-LlM0IuvkEDd-1">
          <mxGeometry width="50" height="50" relative="1" as="geometry">
            <mxPoint x="620" y="300" as="sourcePoint" />
            <mxPoint x="500" y="300" as="targetPoint" />
            <Array as="points">
              <mxPoint x="460" y="110" />
              <mxPoint x="460" y="260" />
            </Array>
          </mxGeometry>
        </mxCell>
        <mxCell id="AmlY3kv_-LlM0IuvkEDd-28" value="&lt;font&gt;8080&lt;/font&gt;" style="edgeLabel;html=1;align=center;verticalAlign=middle;resizable=0;points=[];fontSize=14;fontColor=#000000;" vertex="1" connectable="0" parent="AmlY3kv_-LlM0IuvkEDd-27">
          <mxGeometry x="-0.0067" y="1" relative="1" as="geometry">
            <mxPoint as="offset" />
          </mxGeometry>
        </mxCell>
        <mxCell id="AmlY3kv_-LlM0IuvkEDd-29" value="" style="endArrow=classic;html=1;rounded=0;entryX=0;entryY=0.75;entryDx=0;entryDy=0;exitX=1;exitY=0.5;exitDx=0;exitDy=0;strokeColor=#999999;" edge="1" parent="1" source="AmlY3kv_-LlM0IuvkEDd-1" target="AmlY3kv_-LlM0IuvkEDd-3">
          <mxGeometry width="50" height="50" relative="1" as="geometry">
            <mxPoint x="610" y="210" as="sourcePoint" />
            <mxPoint x="490" y="410" as="targetPoint" />
            <Array as="points">
              <mxPoint x="490" y="280" />
              <mxPoint x="490" y="130" />
            </Array>
          </mxGeometry>
        </mxCell>
        <mxCell id="AmlY3kv_-LlM0IuvkEDd-30" value="&lt;font&gt;50000&lt;/font&gt;" style="edgeLabel;html=1;align=center;verticalAlign=middle;resizable=0;points=[];fontSize=14;fontColor=#CCCCCC;" vertex="1" connectable="0" parent="AmlY3kv_-LlM0IuvkEDd-29">
          <mxGeometry x="-0.0067" y="1" relative="1" as="geometry">
            <mxPoint as="offset" />
          </mxGeometry>
        </mxCell>
      </root>
    </mxGraphModel>
  </diagram>
  <diagram id="aCxDEdEMmmqp3UF-FhCY" name="kapplets">
    <mxGraphModel dx="1410" dy="770" grid="1" gridSize="10" guides="1" tooltips="1" connect="1" arrows="1" fold="1" page="1" pageScale="1" pageWidth="827" pageHeight="1169" math="0" shadow="0">
      <root>
        <mxCell id="0" />
        <mxCell id="1" parent="0" />
        <mxCell id="roHghlw7EmsNQ4wWRVSt-1" value="&lt;font style=&quot;font-size: 16px;&quot;&gt;MC&lt;/font&gt;" style="whiteSpace=wrap;html=1;aspect=fixed;strokeColor=#82b366;fillColor=#d5e8d4;" vertex="1" parent="1">
          <mxGeometry x="330" y="260" width="80" height="80" as="geometry" />
        </mxCell>
        <mxCell id="roHghlw7EmsNQ4wWRVSt-2" value="&lt;font style=&quot;font-size: 16px;&quot;&gt;Kapplets&lt;/font&gt;" style="whiteSpace=wrap;html=1;aspect=fixed;strokeColor=#82b366;fillColor=#009900;fontColor=#FFFFFF;" vertex="1" parent="1">
          <mxGeometry x="130" y="260" width="80" height="80" as="geometry" />
        </mxCell>
        <mxCell id="roHghlw7EmsNQ4wWRVSt-3" value="&lt;font style=&quot;font-size: 16px;&quot;&gt;RS&lt;/font&gt;" style="whiteSpace=wrap;html=1;aspect=fixed;strokeColor=light-dark(#999999,#EDEDED);fontColor=#999999;" vertex="1" parent="1">
          <mxGeometry x="530" y="90" width="80" height="80" as="geometry" />
        </mxCell>
        <mxCell id="roHghlw7EmsNQ4wWRVSt-4" value="&lt;font style=&quot;font-size: 16px;&quot;&gt;DAS&lt;/font&gt;" style="whiteSpace=wrap;html=1;aspect=fixed;strokeColor=light-dark(#999999,#EDEDED);fontColor=#999999;" vertex="1" parent="1">
          <mxGeometry x="530" y="260" width="80" height="80" as="geometry" />
        </mxCell>
        <mxCell id="roHghlw7EmsNQ4wWRVSt-5" value="&lt;font style=&quot;font-size: 16px;&quot;&gt;DS&lt;/font&gt;" style="whiteSpace=wrap;html=1;aspect=fixed;strokeColor=light-dark(#999999,#EDEDED);fontColor=#999999;" vertex="1" parent="1">
          <mxGeometry x="430" y="380" width="80" height="80" as="geometry" />
        </mxCell>
        <mxCell id="roHghlw7EmsNQ4wWRVSt-6" value="&lt;font style=&quot;font-size: 16px;&quot;&gt;DB&lt;/font&gt;" style="shape=cylinder3;whiteSpace=wrap;html=1;boundedLbl=1;backgroundOutline=1;size=15;strokeColor=#82b366;fillColor=#d5e8d4;" vertex="1" parent="1">
          <mxGeometry x="330" y="90" width="80" height="80" as="geometry" />
        </mxCell>
        <mxCell id="roHghlw7EmsNQ4wWRVSt-7" value="" style="endArrow=classic;html=1;rounded=0;entryX=1;entryY=0.25;entryDx=0;entryDy=0;exitX=0;exitY=0.25;exitDx=0;exitDy=0;strokeColor=#999999;" edge="1" parent="1" source="roHghlw7EmsNQ4wWRVSt-1" target="roHghlw7EmsNQ4wWRVSt-2">
          <mxGeometry width="50" height="50" relative="1" as="geometry">
            <mxPoint x="350" y="430" as="sourcePoint" />
            <mxPoint x="400" y="380" as="targetPoint" />
          </mxGeometry>
        </mxCell>
        <mxCell id="roHghlw7EmsNQ4wWRVSt-8" value="&lt;font&gt;8080&lt;/font&gt;" style="edgeLabel;html=1;align=center;verticalAlign=middle;resizable=0;points=[];fontSize=14;fontColor=#CCCCCC;" vertex="1" connectable="0" parent="roHghlw7EmsNQ4wWRVSt-7">
          <mxGeometry x="-0.0067" y="1" relative="1" as="geometry">
            <mxPoint as="offset" />
          </mxGeometry>
        </mxCell>
        <mxCell id="roHghlw7EmsNQ4wWRVSt-9" value="" style="endArrow=classic;html=1;rounded=0;exitX=0.5;exitY=0;exitDx=0;exitDy=0;strokeColor=#999999;" edge="1" parent="1" source="roHghlw7EmsNQ4wWRVSt-1" target="roHghlw7EmsNQ4wWRVSt-6">
          <mxGeometry width="50" height="50" relative="1" as="geometry">
            <mxPoint x="360" y="330" as="sourcePoint" />
            <mxPoint x="410" y="280" as="targetPoint" />
          </mxGeometry>
        </mxCell>
        <mxCell id="roHghlw7EmsNQ4wWRVSt-10" value="&lt;font style=&quot;font-size: 14px;&quot;&gt;3306&lt;/font&gt;" style="edgeLabel;html=1;align=center;verticalAlign=middle;resizable=0;points=[];fontColor=#CCCCCC;" vertex="1" connectable="0" parent="roHghlw7EmsNQ4wWRVSt-9">
          <mxGeometry x="-0.0867" y="-1" relative="1" as="geometry">
            <mxPoint as="offset" />
          </mxGeometry>
        </mxCell>
        <mxCell id="roHghlw7EmsNQ4wWRVSt-11" value="" style="endArrow=classic;html=1;rounded=0;entryX=1.017;entryY=0.251;entryDx=0;entryDy=0;entryPerimeter=0;exitX=0;exitY=0.25;exitDx=0;exitDy=0;strokeColor=#999999;" edge="1" parent="1" source="roHghlw7EmsNQ4wWRVSt-3" target="roHghlw7EmsNQ4wWRVSt-6">
          <mxGeometry width="50" height="50" relative="1" as="geometry">
            <mxPoint x="360" y="250" as="sourcePoint" />
            <mxPoint x="410" y="200" as="targetPoint" />
            <Array as="points">
              <mxPoint x="470" y="110" />
            </Array>
          </mxGeometry>
        </mxCell>
        <mxCell id="roHghlw7EmsNQ4wWRVSt-12" value="&lt;font style=&quot;font-size: 14px;&quot;&gt;3306&lt;/font&gt;" style="edgeLabel;html=1;align=center;verticalAlign=middle;resizable=0;points=[];fontColor=#CCCCCC;" vertex="1" connectable="0" parent="roHghlw7EmsNQ4wWRVSt-11">
          <mxGeometry x="-0.0371" y="-1" relative="1" as="geometry">
            <mxPoint as="offset" />
          </mxGeometry>
        </mxCell>
        <mxCell id="roHghlw7EmsNQ4wWRVSt-13" value="" style="endArrow=classic;html=1;rounded=0;exitX=0.5;exitY=0;exitDx=0;exitDy=0;entryX=0;entryY=0.5;entryDx=0;entryDy=0;entryPerimeter=0;strokeColor=#009900;strokeWidth=3;" edge="1" parent="1" target="roHghlw7EmsNQ4wWRVSt-6">
          <mxGeometry width="50" height="50" relative="1" as="geometry">
            <mxPoint x="169.5" y="260" as="sourcePoint" />
            <mxPoint x="169.5" y="140" as="targetPoint" />
            <Array as="points">
              <mxPoint x="170" y="130" />
            </Array>
          </mxGeometry>
        </mxCell>
        <mxCell id="roHghlw7EmsNQ4wWRVSt-14" value="&lt;font style=&quot;font-size: 14px;&quot;&gt;3306&lt;/font&gt;" style="edgeLabel;html=1;align=center;verticalAlign=middle;resizable=0;points=[];fontColor=#000000;" vertex="1" connectable="0" parent="roHghlw7EmsNQ4wWRVSt-13">
          <mxGeometry x="-0.0867" y="-1" relative="1" as="geometry">
            <mxPoint x="-1" y="16" as="offset" />
          </mxGeometry>
        </mxCell>
        <mxCell id="roHghlw7EmsNQ4wWRVSt-15" value="" style="endArrow=classic;html=1;rounded=0;entryX=0;entryY=0.75;entryDx=0;entryDy=0;exitX=1;exitY=0.75;exitDx=0;exitDy=0;strokeColor=#009900;strokeWidth=3;" edge="1" parent="1" source="roHghlw7EmsNQ4wWRVSt-2" target="roHghlw7EmsNQ4wWRVSt-1">
          <mxGeometry width="50" height="50" relative="1" as="geometry">
            <mxPoint x="380" y="420" as="sourcePoint" />
            <mxPoint x="260" y="420" as="targetPoint" />
          </mxGeometry>
        </mxCell>
        <mxCell id="roHghlw7EmsNQ4wWRVSt-16" value="&lt;font&gt;8080&lt;/font&gt;" style="edgeLabel;html=1;align=center;verticalAlign=middle;resizable=0;points=[];fontSize=14;fontColor=#000000;" vertex="1" connectable="0" parent="roHghlw7EmsNQ4wWRVSt-15">
          <mxGeometry x="-0.0067" y="1" relative="1" as="geometry">
            <mxPoint as="offset" />
          </mxGeometry>
        </mxCell>
        <mxCell id="roHghlw7EmsNQ4wWRVSt-17" value="" style="endArrow=classic;html=1;rounded=0;exitX=0;exitY=0.5;exitDx=0;exitDy=0;strokeColor=#999999;" edge="1" parent="1" source="roHghlw7EmsNQ4wWRVSt-5">
          <mxGeometry width="50" height="50" relative="1" as="geometry">
            <mxPoint x="300" y="480" as="sourcePoint" />
            <mxPoint x="370" y="340" as="targetPoint" />
            <Array as="points">
              <mxPoint x="370" y="420" />
            </Array>
          </mxGeometry>
        </mxCell>
        <mxCell id="roHghlw7EmsNQ4wWRVSt-18" value="&lt;font&gt;8080&lt;/font&gt;" style="edgeLabel;html=1;align=center;verticalAlign=middle;resizable=0;points=[];fontSize=14;fontColor=#CCCCCC;" vertex="1" connectable="0" parent="roHghlw7EmsNQ4wWRVSt-17">
          <mxGeometry x="-0.0067" y="1" relative="1" as="geometry">
            <mxPoint x="1" y="-20" as="offset" />
          </mxGeometry>
        </mxCell>
        <mxCell id="roHghlw7EmsNQ4wWRVSt-19" value="" style="endArrow=classic;html=1;rounded=0;exitX=1;exitY=0.25;exitDx=0;exitDy=0;entryX=0.25;entryY=1;entryDx=0;entryDy=0;strokeColor=#999999;" edge="1" parent="1" source="roHghlw7EmsNQ4wWRVSt-5" target="roHghlw7EmsNQ4wWRVSt-4">
          <mxGeometry width="50" height="50" relative="1" as="geometry">
            <mxPoint x="630" y="540" as="sourcePoint" />
            <mxPoint x="570" y="460" as="targetPoint" />
            <Array as="points">
              <mxPoint x="550" y="400" />
            </Array>
          </mxGeometry>
        </mxCell>
        <mxCell id="roHghlw7EmsNQ4wWRVSt-20" value="&lt;font&gt;49998&lt;/font&gt;" style="edgeLabel;html=1;align=center;verticalAlign=middle;resizable=0;points=[];fontSize=14;fontColor=#CCCCCC;" vertex="1" connectable="0" parent="roHghlw7EmsNQ4wWRVSt-19">
          <mxGeometry x="-0.0067" y="1" relative="1" as="geometry">
            <mxPoint x="1" y="-20" as="offset" />
          </mxGeometry>
        </mxCell>
        <mxCell id="roHghlw7EmsNQ4wWRVSt-21" value="" style="endArrow=classic;html=1;rounded=0;exitX=1;exitY=0.75;exitDx=0;exitDy=0;entryX=0.75;entryY=1;entryDx=0;entryDy=0;strokeColor=#999999;" edge="1" parent="1" source="roHghlw7EmsNQ4wWRVSt-5" target="roHghlw7EmsNQ4wWRVSt-4">
          <mxGeometry width="50" height="50" relative="1" as="geometry">
            <mxPoint x="640" y="570" as="sourcePoint" />
            <mxPoint x="680" y="510" as="targetPoint" />
            <Array as="points">
              <mxPoint x="590" y="440" />
            </Array>
          </mxGeometry>
        </mxCell>
        <mxCell id="roHghlw7EmsNQ4wWRVSt-22" value="&lt;font&gt;49999&lt;/font&gt;" style="edgeLabel;html=1;align=center;verticalAlign=middle;resizable=0;points=[];fontSize=14;fontColor=#CCCCCC;" vertex="1" connectable="0" parent="roHghlw7EmsNQ4wWRVSt-21">
          <mxGeometry x="-0.0067" y="1" relative="1" as="geometry">
            <mxPoint x="1" y="-31" as="offset" />
          </mxGeometry>
        </mxCell>
        <mxCell id="roHghlw7EmsNQ4wWRVSt-23" value="" style="endArrow=classic;html=1;rounded=0;exitX=0.5;exitY=1;exitDx=0;exitDy=0;entryX=0.5;entryY=0;entryDx=0;entryDy=0;strokeColor=#999999;" edge="1" parent="1" source="roHghlw7EmsNQ4wWRVSt-3" target="roHghlw7EmsNQ4wWRVSt-4">
          <mxGeometry width="50" height="50" relative="1" as="geometry">
            <mxPoint x="580" y="450" as="sourcePoint" />
            <mxPoint x="620" y="390" as="targetPoint" />
            <Array as="points" />
          </mxGeometry>
        </mxCell>
        <mxCell id="roHghlw7EmsNQ4wWRVSt-24" value="&lt;font&gt;49998&lt;/font&gt;" style="edgeLabel;html=1;align=center;verticalAlign=middle;resizable=0;points=[];fontSize=14;fontColor=#CCCCCC;" vertex="1" connectable="0" parent="roHghlw7EmsNQ4wWRVSt-23">
          <mxGeometry x="-0.0067" y="1" relative="1" as="geometry">
            <mxPoint x="-1" as="offset" />
          </mxGeometry>
        </mxCell>
        <mxCell id="roHghlw7EmsNQ4wWRVSt-25" value="" style="endArrow=classic;html=1;rounded=0;entryX=1;entryY=0.75;entryDx=0;entryDy=0;exitX=0;exitY=0.75;exitDx=0;exitDy=0;strokeColor=#999999;" edge="1" parent="1" source="roHghlw7EmsNQ4wWRVSt-4" target="roHghlw7EmsNQ4wWRVSt-1">
          <mxGeometry width="50" height="50" relative="1" as="geometry">
            <mxPoint x="420" y="280" as="sourcePoint" />
            <mxPoint x="300" y="280" as="targetPoint" />
          </mxGeometry>
        </mxCell>
        <mxCell id="roHghlw7EmsNQ4wWRVSt-26" value="&lt;font&gt;8080&lt;/font&gt;" style="edgeLabel;html=1;align=center;verticalAlign=middle;resizable=0;points=[];fontSize=14;fontColor=#CCCCCC;" vertex="1" connectable="0" parent="roHghlw7EmsNQ4wWRVSt-25">
          <mxGeometry x="-0.0067" y="1" relative="1" as="geometry">
            <mxPoint as="offset" />
          </mxGeometry>
        </mxCell>
        <mxCell id="roHghlw7EmsNQ4wWRVSt-27" value="" style="endArrow=classic;html=1;rounded=0;entryX=1;entryY=0.25;entryDx=0;entryDy=0;exitX=0;exitY=0.5;exitDx=0;exitDy=0;strokeColor=#999999;" edge="1" parent="1" source="roHghlw7EmsNQ4wWRVSt-3" target="roHghlw7EmsNQ4wWRVSt-1">
          <mxGeometry width="50" height="50" relative="1" as="geometry">
            <mxPoint x="620" y="320" as="sourcePoint" />
            <mxPoint x="500" y="320" as="targetPoint" />
            <Array as="points">
              <mxPoint x="460" y="130" />
              <mxPoint x="460" y="280" />
            </Array>
          </mxGeometry>
        </mxCell>
        <mxCell id="roHghlw7EmsNQ4wWRVSt-28" value="&lt;font&gt;8080&lt;/font&gt;" style="edgeLabel;html=1;align=center;verticalAlign=middle;resizable=0;points=[];fontSize=14;fontColor=#CCCCCC;" vertex="1" connectable="0" parent="roHghlw7EmsNQ4wWRVSt-27">
          <mxGeometry x="-0.0067" y="1" relative="1" as="geometry">
            <mxPoint as="offset" />
          </mxGeometry>
        </mxCell>
        <mxCell id="roHghlw7EmsNQ4wWRVSt-29" value="" style="endArrow=classic;html=1;rounded=0;entryX=0;entryY=0.75;entryDx=0;entryDy=0;exitX=1;exitY=0.5;exitDx=0;exitDy=0;strokeColor=#999999;" edge="1" parent="1" source="roHghlw7EmsNQ4wWRVSt-1" target="roHghlw7EmsNQ4wWRVSt-3">
          <mxGeometry width="50" height="50" relative="1" as="geometry">
            <mxPoint x="610" y="230" as="sourcePoint" />
            <mxPoint x="490" y="430" as="targetPoint" />
            <Array as="points">
              <mxPoint x="490" y="300" />
              <mxPoint x="490" y="150" />
            </Array>
          </mxGeometry>
        </mxCell>
        <mxCell id="roHghlw7EmsNQ4wWRVSt-30" value="&lt;font&gt;50000&lt;/font&gt;" style="edgeLabel;html=1;align=center;verticalAlign=middle;resizable=0;points=[];fontSize=14;fontColor=#CCCCCC;" vertex="1" connectable="0" parent="roHghlw7EmsNQ4wWRVSt-29">
          <mxGeometry x="-0.0067" y="1" relative="1" as="geometry">
            <mxPoint as="offset" />
          </mxGeometry>
        </mxCell>
      </root>
    </mxGraphModel>
  </diagram>
  <diagram id="U7mGxiPRJXNeQPdjziVh" name="das">
    <mxGraphModel dx="1410" dy="770" grid="1" gridSize="10" guides="1" tooltips="1" connect="1" arrows="1" fold="1" page="1" pageScale="1" pageWidth="827" pageHeight="1169" math="0" shadow="0">
      <root>
        <mxCell id="0" />
        <mxCell id="1" parent="0" />
        <mxCell id="h_vIfMaVgurWLyx70Vqp-1" value="&lt;font style=&quot;font-size: 16px;&quot;&gt;MC&lt;/font&gt;" style="whiteSpace=wrap;html=1;aspect=fixed;strokeColor=#82b366;fillColor=#d5e8d4;" vertex="1" parent="1">
          <mxGeometry x="280" y="220" width="80" height="80" as="geometry" />
        </mxCell>
        <mxCell id="h_vIfMaVgurWLyx70Vqp-2" value="&lt;font style=&quot;font-size: 16px;&quot;&gt;Kapplets&lt;/font&gt;" style="whiteSpace=wrap;html=1;aspect=fixed;strokeColor=light-dark(#999999,#EDEDED);fontColor=#999999;" vertex="1" parent="1">
          <mxGeometry x="80" y="220" width="80" height="80" as="geometry" />
        </mxCell>
        <mxCell id="h_vIfMaVgurWLyx70Vqp-3" value="&lt;font style=&quot;font-size: 16px;&quot;&gt;RS&lt;/font&gt;" style="whiteSpace=wrap;html=1;aspect=fixed;strokeColor=light-dark(#999999,#EDEDED);fontColor=#999999;" vertex="1" parent="1">
          <mxGeometry x="480" y="50" width="80" height="80" as="geometry" />
        </mxCell>
        <mxCell id="h_vIfMaVgurWLyx70Vqp-4" value="&lt;font style=&quot;font-size: 16px;&quot;&gt;DAS&lt;/font&gt;" style="whiteSpace=wrap;html=1;aspect=fixed;strokeColor=#82b366;fillColor=#009900;fontColor=#FFFFFF;" vertex="1" parent="1">
          <mxGeometry x="480" y="220" width="80" height="80" as="geometry" />
        </mxCell>
        <mxCell id="h_vIfMaVgurWLyx70Vqp-5" value="&lt;font style=&quot;font-size: 16px;&quot;&gt;DS&lt;/font&gt;" style="whiteSpace=wrap;html=1;aspect=fixed;strokeColor=light-dark(#999999,#EDEDED);fontColor=#999999;" vertex="1" parent="1">
          <mxGeometry x="380" y="340" width="80" height="80" as="geometry" />
        </mxCell>
        <mxCell id="h_vIfMaVgurWLyx70Vqp-6" value="&lt;font style=&quot;font-size: 16px;&quot;&gt;DB&lt;/font&gt;" style="shape=cylinder3;whiteSpace=wrap;html=1;boundedLbl=1;backgroundOutline=1;size=15;strokeColor=light-dark(#999999,#EDEDED);fontColor=#999999;" vertex="1" parent="1">
          <mxGeometry x="280" y="50" width="80" height="80" as="geometry" />
        </mxCell>
        <mxCell id="h_vIfMaVgurWLyx70Vqp-7" value="" style="endArrow=classic;html=1;rounded=0;entryX=1;entryY=0.25;entryDx=0;entryDy=0;exitX=0;exitY=0.25;exitDx=0;exitDy=0;strokeColor=#999999;" edge="1" parent="1" source="h_vIfMaVgurWLyx70Vqp-1" target="h_vIfMaVgurWLyx70Vqp-2">
          <mxGeometry width="50" height="50" relative="1" as="geometry">
            <mxPoint x="300" y="390" as="sourcePoint" />
            <mxPoint x="350" y="340" as="targetPoint" />
          </mxGeometry>
        </mxCell>
        <mxCell id="h_vIfMaVgurWLyx70Vqp-8" value="&lt;font&gt;8080&lt;/font&gt;" style="edgeLabel;html=1;align=center;verticalAlign=middle;resizable=0;points=[];fontSize=14;fontColor=#CCCCCC;" vertex="1" connectable="0" parent="h_vIfMaVgurWLyx70Vqp-7">
          <mxGeometry x="-0.0067" y="1" relative="1" as="geometry">
            <mxPoint as="offset" />
          </mxGeometry>
        </mxCell>
        <mxCell id="h_vIfMaVgurWLyx70Vqp-9" value="" style="endArrow=classic;html=1;rounded=0;exitX=0.5;exitY=0;exitDx=0;exitDy=0;strokeColor=#999999;" edge="1" parent="1" source="h_vIfMaVgurWLyx70Vqp-1" target="h_vIfMaVgurWLyx70Vqp-6">
          <mxGeometry width="50" height="50" relative="1" as="geometry">
            <mxPoint x="310" y="290" as="sourcePoint" />
            <mxPoint x="360" y="240" as="targetPoint" />
          </mxGeometry>
        </mxCell>
        <mxCell id="h_vIfMaVgurWLyx70Vqp-10" value="&lt;font style=&quot;font-size: 14px;&quot;&gt;3306&lt;/font&gt;" style="edgeLabel;html=1;align=center;verticalAlign=middle;resizable=0;points=[];fontColor=#CCCCCC;" vertex="1" connectable="0" parent="h_vIfMaVgurWLyx70Vqp-9">
          <mxGeometry x="-0.0867" y="-1" relative="1" as="geometry">
            <mxPoint as="offset" />
          </mxGeometry>
        </mxCell>
        <mxCell id="h_vIfMaVgurWLyx70Vqp-11" value="" style="endArrow=classic;html=1;rounded=0;entryX=1.017;entryY=0.251;entryDx=0;entryDy=0;entryPerimeter=0;exitX=0;exitY=0.25;exitDx=0;exitDy=0;strokeColor=#999999;" edge="1" parent="1" source="h_vIfMaVgurWLyx70Vqp-3" target="h_vIfMaVgurWLyx70Vqp-6">
          <mxGeometry width="50" height="50" relative="1" as="geometry">
            <mxPoint x="310" y="210" as="sourcePoint" />
            <mxPoint x="360" y="160" as="targetPoint" />
            <Array as="points">
              <mxPoint x="420" y="70" />
            </Array>
          </mxGeometry>
        </mxCell>
        <mxCell id="h_vIfMaVgurWLyx70Vqp-12" value="&lt;font style=&quot;font-size: 14px;&quot;&gt;3306&lt;/font&gt;" style="edgeLabel;html=1;align=center;verticalAlign=middle;resizable=0;points=[];fontColor=#CCCCCC;" vertex="1" connectable="0" parent="h_vIfMaVgurWLyx70Vqp-11">
          <mxGeometry x="-0.0371" y="-1" relative="1" as="geometry">
            <mxPoint as="offset" />
          </mxGeometry>
        </mxCell>
        <mxCell id="h_vIfMaVgurWLyx70Vqp-13" value="" style="endArrow=classic;html=1;rounded=0;exitX=0.5;exitY=0;exitDx=0;exitDy=0;entryX=0;entryY=0.5;entryDx=0;entryDy=0;entryPerimeter=0;strokeColor=#999999;" edge="1" parent="1" target="h_vIfMaVgurWLyx70Vqp-6">
          <mxGeometry width="50" height="50" relative="1" as="geometry">
            <mxPoint x="119.5" y="220" as="sourcePoint" />
            <mxPoint x="119.5" y="100" as="targetPoint" />
            <Array as="points">
              <mxPoint x="120" y="90" />
            </Array>
          </mxGeometry>
        </mxCell>
        <mxCell id="h_vIfMaVgurWLyx70Vqp-14" value="&lt;font style=&quot;font-size: 14px;&quot;&gt;3306&lt;/font&gt;" style="edgeLabel;html=1;align=center;verticalAlign=middle;resizable=0;points=[];fontColor=#CCCCCC;" vertex="1" connectable="0" parent="h_vIfMaVgurWLyx70Vqp-13">
          <mxGeometry x="-0.0867" y="-1" relative="1" as="geometry">
            <mxPoint x="-1" y="16" as="offset" />
          </mxGeometry>
        </mxCell>
        <mxCell id="h_vIfMaVgurWLyx70Vqp-15" value="" style="endArrow=classic;html=1;rounded=0;entryX=0;entryY=0.75;entryDx=0;entryDy=0;exitX=1;exitY=0.75;exitDx=0;exitDy=0;strokeColor=#999999;" edge="1" parent="1" source="h_vIfMaVgurWLyx70Vqp-2" target="h_vIfMaVgurWLyx70Vqp-1">
          <mxGeometry width="50" height="50" relative="1" as="geometry">
            <mxPoint x="330" y="380" as="sourcePoint" />
            <mxPoint x="210" y="380" as="targetPoint" />
          </mxGeometry>
        </mxCell>
        <mxCell id="h_vIfMaVgurWLyx70Vqp-16" value="&lt;font&gt;8080&lt;/font&gt;" style="edgeLabel;html=1;align=center;verticalAlign=middle;resizable=0;points=[];fontSize=14;fontColor=#CCCCCC;" vertex="1" connectable="0" parent="h_vIfMaVgurWLyx70Vqp-15">
          <mxGeometry x="-0.0067" y="1" relative="1" as="geometry">
            <mxPoint as="offset" />
          </mxGeometry>
        </mxCell>
        <mxCell id="h_vIfMaVgurWLyx70Vqp-17" value="" style="endArrow=classic;html=1;rounded=0;exitX=0;exitY=0.5;exitDx=0;exitDy=0;strokeColor=#999999;" edge="1" parent="1" source="h_vIfMaVgurWLyx70Vqp-5">
          <mxGeometry width="50" height="50" relative="1" as="geometry">
            <mxPoint x="250" y="440" as="sourcePoint" />
            <mxPoint x="320" y="300" as="targetPoint" />
            <Array as="points">
              <mxPoint x="320" y="380" />
            </Array>
          </mxGeometry>
        </mxCell>
        <mxCell id="h_vIfMaVgurWLyx70Vqp-18" value="&lt;font&gt;8080&lt;/font&gt;" style="edgeLabel;html=1;align=center;verticalAlign=middle;resizable=0;points=[];fontSize=14;fontColor=#CCCCCC;" vertex="1" connectable="0" parent="h_vIfMaVgurWLyx70Vqp-17">
          <mxGeometry x="-0.0067" y="1" relative="1" as="geometry">
            <mxPoint x="1" y="-20" as="offset" />
          </mxGeometry>
        </mxCell>
        <mxCell id="h_vIfMaVgurWLyx70Vqp-19" value="" style="endArrow=classic;html=1;rounded=0;exitX=1;exitY=0.25;exitDx=0;exitDy=0;entryX=0.25;entryY=1;entryDx=0;entryDy=0;strokeColor=#999999;" edge="1" parent="1" source="h_vIfMaVgurWLyx70Vqp-5" target="h_vIfMaVgurWLyx70Vqp-4">
          <mxGeometry width="50" height="50" relative="1" as="geometry">
            <mxPoint x="580" y="500" as="sourcePoint" />
            <mxPoint x="520" y="420" as="targetPoint" />
            <Array as="points">
              <mxPoint x="500" y="360" />
            </Array>
          </mxGeometry>
        </mxCell>
        <mxCell id="h_vIfMaVgurWLyx70Vqp-20" value="&lt;font&gt;49998&lt;/font&gt;" style="edgeLabel;html=1;align=center;verticalAlign=middle;resizable=0;points=[];fontSize=14;fontColor=#CCCCCC;" vertex="1" connectable="0" parent="h_vIfMaVgurWLyx70Vqp-19">
          <mxGeometry x="-0.0067" y="1" relative="1" as="geometry">
            <mxPoint x="1" y="-20" as="offset" />
          </mxGeometry>
        </mxCell>
        <mxCell id="h_vIfMaVgurWLyx70Vqp-21" value="" style="endArrow=classic;html=1;rounded=0;exitX=1;exitY=0.75;exitDx=0;exitDy=0;entryX=0.75;entryY=1;entryDx=0;entryDy=0;strokeColor=#999999;" edge="1" parent="1" source="h_vIfMaVgurWLyx70Vqp-5" target="h_vIfMaVgurWLyx70Vqp-4">
          <mxGeometry width="50" height="50" relative="1" as="geometry">
            <mxPoint x="590" y="530" as="sourcePoint" />
            <mxPoint x="630" y="470" as="targetPoint" />
            <Array as="points">
              <mxPoint x="540" y="400" />
            </Array>
          </mxGeometry>
        </mxCell>
        <mxCell id="h_vIfMaVgurWLyx70Vqp-22" value="&lt;font&gt;49999&lt;/font&gt;" style="edgeLabel;html=1;align=center;verticalAlign=middle;resizable=0;points=[];fontSize=14;fontColor=#CCCCCC;" vertex="1" connectable="0" parent="h_vIfMaVgurWLyx70Vqp-21">
          <mxGeometry x="-0.0067" y="1" relative="1" as="geometry">
            <mxPoint x="1" y="-31" as="offset" />
          </mxGeometry>
        </mxCell>
        <mxCell id="h_vIfMaVgurWLyx70Vqp-23" value="" style="endArrow=classic;html=1;rounded=0;exitX=0.5;exitY=1;exitDx=0;exitDy=0;entryX=0.5;entryY=0;entryDx=0;entryDy=0;strokeColor=#999999;" edge="1" parent="1" source="h_vIfMaVgurWLyx70Vqp-3" target="h_vIfMaVgurWLyx70Vqp-4">
          <mxGeometry width="50" height="50" relative="1" as="geometry">
            <mxPoint x="530" y="410" as="sourcePoint" />
            <mxPoint x="570" y="350" as="targetPoint" />
            <Array as="points" />
          </mxGeometry>
        </mxCell>
        <mxCell id="h_vIfMaVgurWLyx70Vqp-24" value="&lt;font&gt;49998&lt;/font&gt;" style="edgeLabel;html=1;align=center;verticalAlign=middle;resizable=0;points=[];fontSize=14;fontColor=#CCCCCC;" vertex="1" connectable="0" parent="h_vIfMaVgurWLyx70Vqp-23">
          <mxGeometry x="-0.0067" y="1" relative="1" as="geometry">
            <mxPoint x="-1" as="offset" />
          </mxGeometry>
        </mxCell>
        <mxCell id="h_vIfMaVgurWLyx70Vqp-25" value="" style="endArrow=classic;html=1;rounded=0;entryX=1;entryY=0.75;entryDx=0;entryDy=0;exitX=0;exitY=0.75;exitDx=0;exitDy=0;strokeColor=#009900;strokeWidth=3;" edge="1" parent="1" source="h_vIfMaVgurWLyx70Vqp-4" target="h_vIfMaVgurWLyx70Vqp-1">
          <mxGeometry width="50" height="50" relative="1" as="geometry">
            <mxPoint x="370" y="240" as="sourcePoint" />
            <mxPoint x="250" y="240" as="targetPoint" />
          </mxGeometry>
        </mxCell>
        <mxCell id="h_vIfMaVgurWLyx70Vqp-26" value="&lt;font&gt;8080&lt;/font&gt;" style="edgeLabel;html=1;align=center;verticalAlign=middle;resizable=0;points=[];fontSize=14;fontColor=#000000;" vertex="1" connectable="0" parent="h_vIfMaVgurWLyx70Vqp-25">
          <mxGeometry x="-0.0067" y="1" relative="1" as="geometry">
            <mxPoint as="offset" />
          </mxGeometry>
        </mxCell>
        <mxCell id="h_vIfMaVgurWLyx70Vqp-27" value="" style="endArrow=classic;html=1;rounded=0;entryX=1;entryY=0.25;entryDx=0;entryDy=0;exitX=0;exitY=0.5;exitDx=0;exitDy=0;strokeColor=#999999;" edge="1" parent="1" source="h_vIfMaVgurWLyx70Vqp-3" target="h_vIfMaVgurWLyx70Vqp-1">
          <mxGeometry width="50" height="50" relative="1" as="geometry">
            <mxPoint x="570" y="280" as="sourcePoint" />
            <mxPoint x="450" y="280" as="targetPoint" />
            <Array as="points">
              <mxPoint x="410" y="90" />
              <mxPoint x="410" y="240" />
            </Array>
          </mxGeometry>
        </mxCell>
        <mxCell id="h_vIfMaVgurWLyx70Vqp-28" value="&lt;font&gt;8080&lt;/font&gt;" style="edgeLabel;html=1;align=center;verticalAlign=middle;resizable=0;points=[];fontSize=14;fontColor=#CCCCCC;" vertex="1" connectable="0" parent="h_vIfMaVgurWLyx70Vqp-27">
          <mxGeometry x="-0.0067" y="1" relative="1" as="geometry">
            <mxPoint as="offset" />
          </mxGeometry>
        </mxCell>
        <mxCell id="h_vIfMaVgurWLyx70Vqp-29" value="" style="endArrow=classic;html=1;rounded=0;entryX=0;entryY=0.75;entryDx=0;entryDy=0;exitX=1;exitY=0.5;exitDx=0;exitDy=0;strokeColor=#999999;" edge="1" parent="1" source="h_vIfMaVgurWLyx70Vqp-1" target="h_vIfMaVgurWLyx70Vqp-3">
          <mxGeometry width="50" height="50" relative="1" as="geometry">
            <mxPoint x="560" y="190" as="sourcePoint" />
            <mxPoint x="440" y="390" as="targetPoint" />
            <Array as="points">
              <mxPoint x="440" y="260" />
              <mxPoint x="440" y="110" />
            </Array>
          </mxGeometry>
        </mxCell>
        <mxCell id="h_vIfMaVgurWLyx70Vqp-30" value="&lt;font&gt;50000&lt;/font&gt;" style="edgeLabel;html=1;align=center;verticalAlign=middle;resizable=0;points=[];fontSize=14;fontColor=#CCCCCC;" vertex="1" connectable="0" parent="h_vIfMaVgurWLyx70Vqp-29">
          <mxGeometry x="-0.0067" y="1" relative="1" as="geometry">
            <mxPoint as="offset" />
          </mxGeometry>
        </mxCell>
      </root>
    </mxGraphModel>
  </diagram>
  <diagram id="ExaAGuN8IGvbTwpnSbQq" name="ds">
    <mxGraphModel dx="1410" dy="770" grid="1" gridSize="10" guides="1" tooltips="1" connect="1" arrows="1" fold="1" page="1" pageScale="1" pageWidth="827" pageHeight="1169" math="0" shadow="0">
      <root>
        <mxCell id="0" />
        <mxCell id="1" parent="0" />
        <mxCell id="tYk8hO3k2sJMx_NKDIiP-1" value="&lt;font style=&quot;font-size: 16px;&quot;&gt;MC&lt;/font&gt;" style="whiteSpace=wrap;html=1;aspect=fixed;strokeColor=#82b366;fillColor=#d5e8d4;" vertex="1" parent="1">
          <mxGeometry x="340" y="230" width="80" height="80" as="geometry" />
        </mxCell>
        <mxCell id="tYk8hO3k2sJMx_NKDIiP-2" value="&lt;font style=&quot;font-size: 16px;&quot;&gt;Kapplets&lt;/font&gt;" style="whiteSpace=wrap;html=1;aspect=fixed;strokeColor=light-dark(#999999,#EDEDED);fontColor=#999999;" vertex="1" parent="1">
          <mxGeometry x="140" y="230" width="80" height="80" as="geometry" />
        </mxCell>
        <mxCell id="tYk8hO3k2sJMx_NKDIiP-3" value="&lt;font style=&quot;font-size: 16px;&quot;&gt;RS&lt;/font&gt;" style="whiteSpace=wrap;html=1;aspect=fixed;strokeColor=light-dark(#999999,#EDEDED);fontColor=#999999;" vertex="1" parent="1">
          <mxGeometry x="540" y="60" width="80" height="80" as="geometry" />
        </mxCell>
        <mxCell id="tYk8hO3k2sJMx_NKDIiP-4" value="&lt;font style=&quot;font-size: 16px;&quot;&gt;DAS&lt;/font&gt;" style="whiteSpace=wrap;html=1;aspect=fixed;strokeColor=#82b366;fillColor=#d5e8d4;" vertex="1" parent="1">
          <mxGeometry x="540" y="230" width="80" height="80" as="geometry" />
        </mxCell>
        <mxCell id="tYk8hO3k2sJMx_NKDIiP-5" value="&lt;font style=&quot;font-size: 16px;&quot;&gt;DS&lt;/font&gt;" style="whiteSpace=wrap;html=1;aspect=fixed;strokeColor=#82b366;fillColor=#009900;fontColor=#FFFFFF;" vertex="1" parent="1">
          <mxGeometry x="440" y="350" width="80" height="80" as="geometry" />
        </mxCell>
        <mxCell id="tYk8hO3k2sJMx_NKDIiP-6" value="&lt;font style=&quot;font-size: 16px;&quot;&gt;DB&lt;/font&gt;" style="shape=cylinder3;whiteSpace=wrap;html=1;boundedLbl=1;backgroundOutline=1;size=15;strokeColor=light-dark(#999999,#EDEDED);fontColor=#999999;" vertex="1" parent="1">
          <mxGeometry x="340" y="60" width="80" height="80" as="geometry" />
        </mxCell>
        <mxCell id="tYk8hO3k2sJMx_NKDIiP-7" value="" style="endArrow=classic;html=1;rounded=0;entryX=1;entryY=0.25;entryDx=0;entryDy=0;exitX=0;exitY=0.25;exitDx=0;exitDy=0;strokeColor=#999999;" edge="1" parent="1" source="tYk8hO3k2sJMx_NKDIiP-1" target="tYk8hO3k2sJMx_NKDIiP-2">
          <mxGeometry width="50" height="50" relative="1" as="geometry">
            <mxPoint x="360" y="400" as="sourcePoint" />
            <mxPoint x="410" y="350" as="targetPoint" />
          </mxGeometry>
        </mxCell>
        <mxCell id="tYk8hO3k2sJMx_NKDIiP-8" value="&lt;font&gt;8080&lt;/font&gt;" style="edgeLabel;html=1;align=center;verticalAlign=middle;resizable=0;points=[];fontSize=14;fontColor=#CCCCCC;" vertex="1" connectable="0" parent="tYk8hO3k2sJMx_NKDIiP-7">
          <mxGeometry x="-0.0067" y="1" relative="1" as="geometry">
            <mxPoint as="offset" />
          </mxGeometry>
        </mxCell>
        <mxCell id="tYk8hO3k2sJMx_NKDIiP-9" value="" style="endArrow=classic;html=1;rounded=0;exitX=0.5;exitY=0;exitDx=0;exitDy=0;strokeColor=#999999;" edge="1" parent="1" source="tYk8hO3k2sJMx_NKDIiP-1" target="tYk8hO3k2sJMx_NKDIiP-6">
          <mxGeometry width="50" height="50" relative="1" as="geometry">
            <mxPoint x="370" y="300" as="sourcePoint" />
            <mxPoint x="420" y="250" as="targetPoint" />
          </mxGeometry>
        </mxCell>
        <mxCell id="tYk8hO3k2sJMx_NKDIiP-10" value="&lt;font style=&quot;font-size: 14px;&quot;&gt;3306&lt;/font&gt;" style="edgeLabel;html=1;align=center;verticalAlign=middle;resizable=0;points=[];fontColor=#CCCCCC;" vertex="1" connectable="0" parent="tYk8hO3k2sJMx_NKDIiP-9">
          <mxGeometry x="-0.0867" y="-1" relative="1" as="geometry">
            <mxPoint as="offset" />
          </mxGeometry>
        </mxCell>
        <mxCell id="tYk8hO3k2sJMx_NKDIiP-11" value="" style="endArrow=classic;html=1;rounded=0;entryX=1.017;entryY=0.251;entryDx=0;entryDy=0;entryPerimeter=0;exitX=0;exitY=0.25;exitDx=0;exitDy=0;strokeColor=#999999;" edge="1" parent="1" source="tYk8hO3k2sJMx_NKDIiP-3" target="tYk8hO3k2sJMx_NKDIiP-6">
          <mxGeometry width="50" height="50" relative="1" as="geometry">
            <mxPoint x="370" y="220" as="sourcePoint" />
            <mxPoint x="420" y="170" as="targetPoint" />
            <Array as="points">
              <mxPoint x="480" y="80" />
            </Array>
          </mxGeometry>
        </mxCell>
        <mxCell id="tYk8hO3k2sJMx_NKDIiP-12" value="&lt;font style=&quot;font-size: 14px;&quot;&gt;3306&lt;/font&gt;" style="edgeLabel;html=1;align=center;verticalAlign=middle;resizable=0;points=[];fontColor=#CCCCCC;" vertex="1" connectable="0" parent="tYk8hO3k2sJMx_NKDIiP-11">
          <mxGeometry x="-0.0371" y="-1" relative="1" as="geometry">
            <mxPoint as="offset" />
          </mxGeometry>
        </mxCell>
        <mxCell id="tYk8hO3k2sJMx_NKDIiP-13" value="" style="endArrow=classic;html=1;rounded=0;exitX=0.5;exitY=0;exitDx=0;exitDy=0;entryX=0;entryY=0.5;entryDx=0;entryDy=0;entryPerimeter=0;strokeColor=#999999;" edge="1" parent="1" target="tYk8hO3k2sJMx_NKDIiP-6">
          <mxGeometry width="50" height="50" relative="1" as="geometry">
            <mxPoint x="179.5" y="230" as="sourcePoint" />
            <mxPoint x="179.5" y="110" as="targetPoint" />
            <Array as="points">
              <mxPoint x="180" y="100" />
            </Array>
          </mxGeometry>
        </mxCell>
        <mxCell id="tYk8hO3k2sJMx_NKDIiP-14" value="&lt;font style=&quot;font-size: 14px;&quot;&gt;3306&lt;/font&gt;" style="edgeLabel;html=1;align=center;verticalAlign=middle;resizable=0;points=[];fontColor=#CCCCCC;" vertex="1" connectable="0" parent="tYk8hO3k2sJMx_NKDIiP-13">
          <mxGeometry x="-0.0867" y="-1" relative="1" as="geometry">
            <mxPoint x="-1" y="16" as="offset" />
          </mxGeometry>
        </mxCell>
        <mxCell id="tYk8hO3k2sJMx_NKDIiP-15" value="" style="endArrow=classic;html=1;rounded=0;entryX=0;entryY=0.75;entryDx=0;entryDy=0;exitX=1;exitY=0.75;exitDx=0;exitDy=0;strokeColor=#999999;" edge="1" parent="1" source="tYk8hO3k2sJMx_NKDIiP-2" target="tYk8hO3k2sJMx_NKDIiP-1">
          <mxGeometry width="50" height="50" relative="1" as="geometry">
            <mxPoint x="390" y="390" as="sourcePoint" />
            <mxPoint x="270" y="390" as="targetPoint" />
          </mxGeometry>
        </mxCell>
        <mxCell id="tYk8hO3k2sJMx_NKDIiP-16" value="&lt;font&gt;8080&lt;/font&gt;" style="edgeLabel;html=1;align=center;verticalAlign=middle;resizable=0;points=[];fontSize=14;fontColor=#CCCCCC;" vertex="1" connectable="0" parent="tYk8hO3k2sJMx_NKDIiP-15">
          <mxGeometry x="-0.0067" y="1" relative="1" as="geometry">
            <mxPoint as="offset" />
          </mxGeometry>
        </mxCell>
        <mxCell id="tYk8hO3k2sJMx_NKDIiP-17" value="" style="endArrow=classic;html=1;rounded=0;exitX=0;exitY=0.5;exitDx=0;exitDy=0;strokeColor=#009900;strokeWidth=3;" edge="1" parent="1" source="tYk8hO3k2sJMx_NKDIiP-5">
          <mxGeometry width="50" height="50" relative="1" as="geometry">
            <mxPoint x="310" y="450" as="sourcePoint" />
            <mxPoint x="380" y="310" as="targetPoint" />
            <Array as="points">
              <mxPoint x="380" y="390" />
            </Array>
          </mxGeometry>
        </mxCell>
        <mxCell id="tYk8hO3k2sJMx_NKDIiP-18" value="&lt;font&gt;8080&lt;/font&gt;" style="edgeLabel;html=1;align=center;verticalAlign=middle;resizable=0;points=[];fontSize=14;fontColor=#000000;" vertex="1" connectable="0" parent="tYk8hO3k2sJMx_NKDIiP-17">
          <mxGeometry x="-0.0067" y="1" relative="1" as="geometry">
            <mxPoint x="1" y="-20" as="offset" />
          </mxGeometry>
        </mxCell>
        <mxCell id="tYk8hO3k2sJMx_NKDIiP-19" value="" style="endArrow=classic;html=1;rounded=0;exitX=1;exitY=0.25;exitDx=0;exitDy=0;entryX=0.25;entryY=1;entryDx=0;entryDy=0;strokeColor=#009900;strokeWidth=3;" edge="1" parent="1" source="tYk8hO3k2sJMx_NKDIiP-5" target="tYk8hO3k2sJMx_NKDIiP-4">
          <mxGeometry width="50" height="50" relative="1" as="geometry">
            <mxPoint x="640" y="510" as="sourcePoint" />
            <mxPoint x="580" y="430" as="targetPoint" />
            <Array as="points">
              <mxPoint x="560" y="370" />
            </Array>
          </mxGeometry>
        </mxCell>
        <mxCell id="tYk8hO3k2sJMx_NKDIiP-20" value="&lt;font&gt;49998&lt;/font&gt;" style="edgeLabel;html=1;align=center;verticalAlign=middle;resizable=0;points=[];fontSize=14;fontColor=#000000;" vertex="1" connectable="0" parent="tYk8hO3k2sJMx_NKDIiP-19">
          <mxGeometry x="-0.0067" y="1" relative="1" as="geometry">
            <mxPoint x="1" y="-20" as="offset" />
          </mxGeometry>
        </mxCell>
        <mxCell id="tYk8hO3k2sJMx_NKDIiP-21" value="" style="endArrow=classic;html=1;rounded=0;exitX=1;exitY=0.75;exitDx=0;exitDy=0;entryX=0.75;entryY=1;entryDx=0;entryDy=0;strokeColor=#009900;strokeWidth=3;" edge="1" parent="1" source="tYk8hO3k2sJMx_NKDIiP-5" target="tYk8hO3k2sJMx_NKDIiP-4">
          <mxGeometry width="50" height="50" relative="1" as="geometry">
            <mxPoint x="650" y="540" as="sourcePoint" />
            <mxPoint x="690" y="480" as="targetPoint" />
            <Array as="points">
              <mxPoint x="600" y="410" />
            </Array>
          </mxGeometry>
        </mxCell>
        <mxCell id="tYk8hO3k2sJMx_NKDIiP-22" value="&lt;font&gt;49999&lt;/font&gt;" style="edgeLabel;html=1;align=center;verticalAlign=middle;resizable=0;points=[];fontSize=14;fontColor=#000000;" vertex="1" connectable="0" parent="tYk8hO3k2sJMx_NKDIiP-21">
          <mxGeometry x="-0.0067" y="1" relative="1" as="geometry">
            <mxPoint x="1" y="-31" as="offset" />
          </mxGeometry>
        </mxCell>
        <mxCell id="tYk8hO3k2sJMx_NKDIiP-23" value="" style="endArrow=classic;html=1;rounded=0;exitX=0.5;exitY=1;exitDx=0;exitDy=0;entryX=0.5;entryY=0;entryDx=0;entryDy=0;strokeColor=#999999;" edge="1" parent="1" source="tYk8hO3k2sJMx_NKDIiP-3" target="tYk8hO3k2sJMx_NKDIiP-4">
          <mxGeometry width="50" height="50" relative="1" as="geometry">
            <mxPoint x="590" y="420" as="sourcePoint" />
            <mxPoint x="630" y="360" as="targetPoint" />
            <Array as="points" />
          </mxGeometry>
        </mxCell>
        <mxCell id="tYk8hO3k2sJMx_NKDIiP-24" value="&lt;font&gt;49998&lt;/font&gt;" style="edgeLabel;html=1;align=center;verticalAlign=middle;resizable=0;points=[];fontSize=14;fontColor=#CCCCCC;" vertex="1" connectable="0" parent="tYk8hO3k2sJMx_NKDIiP-23">
          <mxGeometry x="-0.0067" y="1" relative="1" as="geometry">
            <mxPoint x="-1" as="offset" />
          </mxGeometry>
        </mxCell>
        <mxCell id="tYk8hO3k2sJMx_NKDIiP-25" value="" style="endArrow=classic;html=1;rounded=0;entryX=1;entryY=0.75;entryDx=0;entryDy=0;exitX=0;exitY=0.75;exitDx=0;exitDy=0;strokeColor=#999999;" edge="1" parent="1" source="tYk8hO3k2sJMx_NKDIiP-4" target="tYk8hO3k2sJMx_NKDIiP-1">
          <mxGeometry width="50" height="50" relative="1" as="geometry">
            <mxPoint x="430" y="250" as="sourcePoint" />
            <mxPoint x="310" y="250" as="targetPoint" />
          </mxGeometry>
        </mxCell>
        <mxCell id="tYk8hO3k2sJMx_NKDIiP-26" value="&lt;font&gt;8080&lt;/font&gt;" style="edgeLabel;html=1;align=center;verticalAlign=middle;resizable=0;points=[];fontSize=14;fontColor=#CCCCCC;" vertex="1" connectable="0" parent="tYk8hO3k2sJMx_NKDIiP-25">
          <mxGeometry x="-0.0067" y="1" relative="1" as="geometry">
            <mxPoint as="offset" />
          </mxGeometry>
        </mxCell>
        <mxCell id="tYk8hO3k2sJMx_NKDIiP-27" value="" style="endArrow=classic;html=1;rounded=0;entryX=1;entryY=0.25;entryDx=0;entryDy=0;exitX=0;exitY=0.5;exitDx=0;exitDy=0;strokeColor=#999999;" edge="1" parent="1" source="tYk8hO3k2sJMx_NKDIiP-3" target="tYk8hO3k2sJMx_NKDIiP-1">
          <mxGeometry width="50" height="50" relative="1" as="geometry">
            <mxPoint x="630" y="290" as="sourcePoint" />
            <mxPoint x="510" y="290" as="targetPoint" />
            <Array as="points">
              <mxPoint x="470" y="100" />
              <mxPoint x="470" y="250" />
            </Array>
          </mxGeometry>
        </mxCell>
        <mxCell id="tYk8hO3k2sJMx_NKDIiP-28" value="&lt;font&gt;8080&lt;/font&gt;" style="edgeLabel;html=1;align=center;verticalAlign=middle;resizable=0;points=[];fontSize=14;fontColor=#CCCCCC;" vertex="1" connectable="0" parent="tYk8hO3k2sJMx_NKDIiP-27">
          <mxGeometry x="-0.0067" y="1" relative="1" as="geometry">
            <mxPoint as="offset" />
          </mxGeometry>
        </mxCell>
        <mxCell id="tYk8hO3k2sJMx_NKDIiP-29" value="" style="endArrow=classic;html=1;rounded=0;entryX=0;entryY=0.75;entryDx=0;entryDy=0;exitX=1;exitY=0.5;exitDx=0;exitDy=0;strokeColor=#999999;" edge="1" parent="1" source="tYk8hO3k2sJMx_NKDIiP-1" target="tYk8hO3k2sJMx_NKDIiP-3">
          <mxGeometry width="50" height="50" relative="1" as="geometry">
            <mxPoint x="620" y="200" as="sourcePoint" />
            <mxPoint x="500" y="400" as="targetPoint" />
            <Array as="points">
              <mxPoint x="500" y="270" />
              <mxPoint x="500" y="120" />
            </Array>
          </mxGeometry>
        </mxCell>
        <mxCell id="tYk8hO3k2sJMx_NKDIiP-30" value="&lt;font&gt;50000&lt;/font&gt;" style="edgeLabel;html=1;align=center;verticalAlign=middle;resizable=0;points=[];fontSize=14;fontColor=#CCCCCC;" vertex="1" connectable="0" parent="tYk8hO3k2sJMx_NKDIiP-29">
          <mxGeometry x="-0.0067" y="1" relative="1" as="geometry">
            <mxPoint as="offset" />
          </mxGeometry>
        </mxCell>
      </root>
    </mxGraphModel>
  </diagram>
</mxfile>
